<svg xmlns="http://www.w3.org/2000/svg" xmlns:xlink="http://www.w3.org/1999/xlink" width="1438" height="1438" xmlns:v="https://vecta.io/nano"><path d="M712 407c1.051 4.292 1.139 8.454 1.123 12.846l.003 2.386-.006 7.946.003 5.742-.007 15.803-.002 17.033-.008 29.518-.012 42.678-.018 69.239-.021 67.268v2.094l-.004 20.821L713 875l-4.24.508-2.385.286c-3.547.309-6.887.057-10.438-.231l-3.973-.309L689 875c-2.231-5.546-2.609-10.979-3.062-16.875-.522-6.397-1.076-12.764-1.937-19.125l-.328-2.486c-1.395-10.532-2.811-21.052-4.672-31.514l-.754-4.32-2.676-14.793-2.383-12.859-1.07-5.912-1.679-9.289-1.626-8.986-.505-2.806-.475-2.62-.415-2.296c-.406-2.061-.901-4.082-1.417-6.118l-1.312-6.687c-2.185-11.072-4.597-22.105-7.977-32.879-.833-2.852-1.495-5.722-2.148-8.621-1.495-6.619-3.186-13.172-4.987-19.713l-1.147-4.233c-10.441-38.9-24.144-76.982-43.131-112.526-1.88-3.525-3.685-7.081-5.448-10.666-1.165-2.299-2.507-4.474-3.848-6.674l-2.25-4.125c-4.246-7.647-8.465-14.744-14.75-20.875-1.492-1.827-2.947-3.685-4.375-5.562l-2.148-2.816C571 497 571 497 571.02 494.902c2.168-4.207 6.381-6.95 9.98-9.902l1.988-1.641c3.521-2.77 7.115-5.016 11.074-7.109 5.21-2.755 10.019-5.912 14.886-9.219 5.03-3.398 10.167-6.583 15.364-9.719 5.44-3.288 10.726-6.662 15.887-10.379 5.564-3.841 11.339-7.363 17.066-10.953l8.406-5.367c8.845-5.782 17.899-11.133 27.091-16.343l6.198-3.56 3.477-1.961 2.996-1.703c2.776-1.133 3.833-1.158 6.566-.047z" fill="#f8f519"/><path d="M885 507c8.2 3.36 15.831 7.983 23.313 12.695 4.556 2.869 9.189 5.609 13.813 8.367 7.03 4.207 13.998 8.483 20.875 12.938l3.91 2.48c7.653 4.871 15.135 9.884 22.405 15.312 3.36 2.508 6.745 4.964 10.189 7.356l2.301 1.6 4.387 3.017c4.404 3.058 8.339 6.121 11.809 10.235-.145 2.052-.145 2.052-1 4-2.434 1.556-4.737 2.858-7.312 4.125l-2.053 1.051-7.99 3.941c-1.84.886-1.84.886-3.645 2.883l-5.5 3.125c-5.999 3.458-11.209 7.432-16.5 11.875l-5.5 4.5-2.469 2.031C944 620 944 620 942 620l-.758 1.773c-1.407 2.522-2.929 3.977-5.117 5.852l-2.055 1.789C932 631 932 631 929.82 632.078c-2.358 1.194-2.859 2.519-3.82 4.922h-2l-.762 1.789c-1.393 2.487-2.848 3.792-5.051 5.586-3.527 2.98-6.299 6.034-9.187 9.625l-5 5c-6.273 6.623-11.744 13.555-17 21l-2.301 3.105c-7.29 9.868-13.524 20.303-19.699 30.895l-1.491 2.557-8.116 14.042-3.066 5.194c-4.193 7.036-7.827 14.184-11.201 21.644l-1.557 3.417L835 771l-1.308 2.917c-5.187 11.636-9.731 23.383-13.802 35.452L815 823.563l-1.015 2.937-5.732 15.808C804.186 853.052 801.049 863.921 798 875h-36c.641-7.689 1.344-15.29 2.338-22.928.421-3.394.662-6.587.658-10.021C765 839 765 839 766 838c.301-1.706.543-3.422.762-5.141l.443-3.379.482-3.73c8.151-60.932 8.151-60.932 16.167-86.669 1.813-5.84 3.247-11.668 4.454-17.667 1.023-5.053 2.219-10.062 3.422-15.074l2.883-12.461c3.572-15.585 7.745-30.86 12.699-46.066l.789-2.432 2.262-6.861.672-2.041c1.357-4.017 3.057-7.699 4.965-11.478a82.26 82.26 0 0 0 1.453-4.707c1.557-5.408 3.377-10.691 5.297-15.98l1.052-2.899c2.552-6.916 5.439-13.561 8.663-20.187 1.785-3.752 3.288-7.567 4.711-11.469C838 568 838 568 840 567l1.125-3.687c2.172-6.974 6.144-13.084 9.875-19.312l1.527-2.586c1.613-2.644 3.31-5.217 5.035-7.789l2.113-3.152 1.131-1.687 3.798-5.727 1.332-2.012 2.561-3.882c7.878-11.88 7.878-11.88 16.502-10.165z" fill="#286596"/><path d="M561 506l1 3h2c1.309 1.585 1.309 1.585 2.793 3.805l1.65 2.443 1.745 2.627 3.555 5.281 1.718 2.563 5.353 7.656C588.303 544.076 594.359 555.257 600 567l.918 1.883c9.367 19.224 16.217 39.464 22.946 59.729l3.175 9.327c8.627 25.087 15.448 50.079 20.688 76.113 2.501 12.346 5.51 24.558 8.506 36.792 2.341 9.638 4.495 19.297 6.196 29.071l.387 2.214 4.058 24.497.384 2.416c3.467 21.901 6.381 43.91 8.741 65.959-11.849 1.262-23.125.958-35 0l-1.23-3.719-6.082-17.781-1.2-3.465-6.863-19.598L623 823l-.996-2.82c-1.115-3.233-2.023-6.297-2.566-9.68L619 808l-2-1c-.605-1.723-.605-1.723-1.187-4.062-3.373-11.814-9.077-22.801-14.967-33.53C598 764.196 598 764.196 598 762l-2-1a135.4 135.4 0 0 1-2-5l-3.75-7.625-1.08-2.154c-2.456-4.873-5.026-9.672-7.674-14.444-1.746-3.241-3.373-6.536-4.996-9.84a174.45 174.45 0 0 0-8.094-14.559c-1.483-2.509-2.764-5.067-4.031-7.691-1.387-2.864-2.618-4.991-4.625-7.5-1.946-2.432-2.4-4.126-2.75-7.187h-2c-1.289-1.461-1.289-1.461-2.625-3.375l-1.352-1.898C550 678 550 678 550 676l-2-1c-1.065-1.234-2.08-2.512-3.062-3.812l-1.598-2.082c-1.322-2.077-1.902-3.7-2.34-6.105h-2c-1.539-1.72-3.007-3.502-4.437-5.312-3.015-3.852-3.015-3.852-6.348-7.418C527 649 527 649 527 647l-3-1c-1.359-1.418-1.359-1.418-2.75-3.187-2.692-3.287-5.601-5.921-8.93-8.551L511 633v-2l-1.875-.937L505 628v-2l-1.687-.75c-2.712-1.466-4.928-3.305-7.312-5.25l-2-1v-2l-2.211-.801c-2.8-1.204-4.958-2.592-7.414-4.387-3.525-2.524-7.082-4.939-10.75-7.25l-12-7.75-2.898-1.918C456 593 456 593 453.336 590.824c-2.283-1.992-2.283-1.992-5.336-2.824v-2l-1.812-.687c-2.751-1.651-3.712-3.51-5.187-6.312 3.596-4.719 7.185-7.793 12.188-10.937l3.73-2.402 1.976-1.269c2.331-1.54 4.603-3.15 6.88-4.77 5.402-3.804 10.999-7.226 16.664-10.621l20.038-12.428c2.584-1.609 5.215-3.074 7.9-4.51 8.035-4.312 15.711-9.2 23.395-14.102l2.525-1.607 4.906-3.142c14.456-9.216 14.456-9.216 19.799-7.212z" fill="#fd951b"/><path d="M730 407l7.695 4.215 2.139 1.312 2.29 1.411 4.902 3.012 2.519 1.548 6.833 4.147c8.484 5.123 16.835 10.416 25.121 15.855 11.026 7.238 22.194 14.201 33.559 20.895 6.706 3.958 13.146 8.035 19.395 12.703 4.11 3.07 8.336 5.973 12.547 8.902l7.664 5.371 4.484 3.039c4.565 3.046 4.565 3.046 5.785 5.359.103 3.475-1.929 5.572-3.934 8.23l-2.805 3.988-3.07 4.324L843 529l-2.145 3.227c-4.86 7.366-9.038 14.806-12.855 22.773l-1.934 3.813C812.29 585.831 802.577 614.675 795 644l-2.973 10.879c-.892 3.429-1.616 6.884-2.34 10.352-2.139 10.101-4.737 20.086-7.278 30.091-4.521 17.825-8.569 35.567-11.409 53.741l-.777 4.875-1.885 11.912-2.464 15.525-.474 2.979-6.901 39.396c-1.38 7.287-2.52 14.604-3.625 21.938l-.518 3.384c-.998 6.748-1.691 13.451-2.107 20.26C752 872 752 872 751 875h-22c-.744-3.721-1.125-6.501-1.126-10.198l-.008-3.13.007-3.422-.005-3.655.001-10.049-.004-10.863v-21.4l.001-17.636v-2.556l-.001-5.148.006-48.526-.001-40.613.528-221.577.092-14.311.168-24.391.055-8.052.084-10.901.017-3.242.029-2.913.019-2.531C729 408 729 408 730 407z" fill="#49ae42"/><path d="M431.688 590.625l2.762.039c2.597.342 4.305 1.021 6.551 2.336v2l1.781.841c2.096 1.094 3.855 2.274 5.731 3.706l2.022 1.542 2.153 1.662 2.243 1.72c6.268 4.839 12.39 9.846 18.447 14.947 2.807 2.35 5.451 4.481 8.607 6.356L484 627v2l1.688.813c2.525 1.296 4.95 2.612 7.313 4.188v2l1.578.656c3.402 1.887 6.216 4.33 9.172 6.844l1.824 1.512c1.516 1.282 2.976 2.631 4.426 3.988v2l3 1c1.91 2.047 1.91 2.047 4.063 4.75l2.426 3.043L522 663l2.355 2.988L532 676l1.533 2.044c10.471 14.044 19.625 28.674 28.12 43.983 2.324 4.185 4.724 8.317 7.177 12.428 4.115 6.897 7.952 13.82 11.467 21.045l3.594 7.188c5.127 9.978 9.565 20.187 13.921 30.521l4.924 11.29c7.594 17.27 14.489 34.684 20.327 52.626l1.196 3.649 1.09 3.421.969 3.032c.668 2.712.818 4.994.683 7.773l-12.812.188-3.682.076-3.525.029-3.253.048C601 875 601 875 599.184 873.604c-1.395-1.89-2.136-3.642-2.934-5.854-4.4-11.446-9.901-22.202-15.961-32.848l-1.25-2.199-1.119-1.948C577 829 577 829 576 826l-2-1c-1.07-1.559-1.07-1.559-2.125-3.437l-1.07-1.871C570 818 570 818 570 816l-2-1c-.625-2.062-.625-2.062-1-4h-2l-.996-1.949c-6.155-11.693-13.995-22.115-21.879-32.676l-1.984-2.66-1.883-2.504-1.683-2.241c-1.433-1.793-2.927-3.377-4.575-4.97l-3.125-3.625c-3.386-3.901-6.997-7.518-10.676-11.141-2.061-2.094-3.983-4.248-5.887-6.484-2.105-2.47-4.215-4.599-6.75-6.625L503 734v-2l-1.68-.746c-2.766-1.495-5.018-3.32-7.445-5.316-3.261-2.742-3.261-2.742-6.875-4.937v-2l-1.656-.742c-2.857-1.533-5.276-3.402-7.844-5.383-5.283-4.027-10.685-7.685-16.297-11.246L459 700v-2l-1.762-.344c-2.446-.717-3.976-1.683-6.051-3.156-4.229-2.899-8.548-5.603-12.937-8.25l-1.933-1.178c-3.361-2.018-6.65-3.699-10.317-5.072l-4.125-2.062c-2.312-1.192-4.391-2.109-6.875-2.937v-2l-2.22-.407c-2.522-.538-4.836-1.226-7.265-2.081l-2.558-.885-2.708-.939c-8.659-2.945-17.291-5.288-26.219-7.24-22.925-5.049-22.925-5.049-31.031-9.447-1.352-2.156-1.352-2.156-2-4 2.908-3.947 5.991-6.729 9.938-9.625l3.09-2.289c1.739-1.22 3.507-2.404 5.332-3.492 4.556-2.75 8.816-5.937 13.139-9.035 4.17-2.97 8.389-5.79 12.749-8.473 2.105-1.304 4.149-2.685 6.19-4.085 3.568-2.391 7.2-4.533 10.973-6.582l9.715-5.48 3.445-1.973 5.217-3.088c3.774-2.322 6.467-3.391 10.9-3.252z" fill="#ee070b"/><path d="M1024 596c9.875 5.251 19.071 11.271 28 18l4.5 3.125c6.123 4.254 12.093 8.718 18.076 13.165l2.424 1.796 2.188 1.626c1.785 1.338 1.785 1.338 3.813 2.288v2l2.199.742c3.114 1.398 5.115 3.071 7.613 5.383l2.395 2.195L1097 648c-1 3-1 3-2.931 4.065-5.979 2.244-11.972 4.185-18.131 5.873l-5.566 1.566-7.652 2.125c-11.265 3.114-22.123 6.988-32.987 11.293l-8.186 3.172c-21.714 8.46-41.744 19.463-59.621 34.473C960 712 960 712 958 712v2l-1.937.313L954 715l-1 3c-1.53 1.375-3.125 2.677-4.75 3.938-6.723 5.376-13.019 11.127-19.25 17.063l-1.666 1.579c-7.753 7.393-14.598 15.154-21.039 23.711l-3.815 4.921c-6.113 7.777-11.729 15.848-17.279 24.034-1.531 2.237-3.116 4.432-4.702 6.63-4.697 6.687-8.826 13.741-13.047 20.733l-4.324 7.029c-7.985 12.876-15.363 25.634-20.784 39.819-2.524 6.487-2.524 6.487-5.345 8.545-2.635.249-2.635.249-5.762.074l-3.389-.166-3.537-.221-3.572-.186L812 875c1.558-7.47 3.748-14.591 6.241-21.796l2.396-7.056c2.932-8.619 6.054-17.048 9.806-25.345 2.071-4.601 3.893-9.252 5.62-13.991 2.15-5.873 4.572-11.525 7.262-17.176 1.286-2.739 2.473-5.51 3.633-8.305C854.215 763.858 862.386 746.71 873 731l3.438-5.437c3.038-4.775 6.17-9.482 9.32-14.184l7.867-12.066 2.816-4.352 4.523-7.047 1.598-2.477 1.316-2.066L905 682h2l1-4h2l.816-1.754c1.196-2.27 2.547-4.16 4.121-6.184 1.702-2.22 3.216-4.327 4.625-6.75 1.79-2.879 4.027-4.927 6.438-7.312l5.063-5.5 2.535-2.781c1.591-1.801 3.122-3.657 4.586-5.562L940 640h2l.807-1.79c1.22-2.259 2.477-3.752 4.283-5.565l1.863-1.875 1.985-1.957 2.026-2.01C968.051 612 968.051 612 972 612l1-3c1.392-1.255 1.392-1.255 3.176-2.488l1.991-1.384 2.146-1.441 2.196-1.478c14.122-9.361 25.36-14.103 41.491-6.21z" fill="#8d5396"/><path d="M1022 903h20c6.055 7.03 6.055 7.03 7.652 10.453 2.51 5.026 5.627 9.517 8.848 14.109l3.293 4.805L1075 951l5.563-8.125 1.744-2.548 9.721-14.241 2.008-2.949 3.85-5.661 1.802-2.648 1.574-2.315L1108 903h19v96h-22l-1-54c-5.724 8.544-5.724 8.544-11.062 17.328-7.195 12.337-7.195 12.337-11.976 14.664-4.992 1.275-9.138.669-13.962-.992-3.404-2.463-5.016-5.346-7-9l-4-5.937-1.812-2.777c-2.984-4.482-6.1-8.874-9.187-13.285l-1 54h-22v-96zm-212 0c58.3 0 58.3 0 68.941 9.785 7.39 7.76 8.56 15.528 8.479 25.904-.321 9.325-3.284 15.869-9.67 22.682-2.076 1.933-4.197 3.391-6.75 4.629 1.491 4.078 3.462 7.64 5.695 11.359l1.068 1.787 3.362 5.603 3.384 5.646 3.054 5.091C889 998 889 998 889 999c-4.207.262-8.412.421-12.625.563l-3.605.229c-8.581.216-8.581.216-11.766-2.483-1.621-2.362-2.826-4.698-4.003-7.308l-2.535-5c-1.279-2.518-2.539-5.025-3.705-7.598-1.395-2.89-1.395-2.89-4.76-6.402l-13-1v29h-23v-96zm22 20v28c15.384 1.03 15.384 1.03 29.063-4.5 3.311-4.272 3.331-7.415 3.289-12.73-.553-4.354-2.097-5.885-5.352-8.77-3.219-2.002-5.659-2.237-9.422-2.195l-2.8.015-3.528.055L832 923z" fill="#fefefe"/><path d="M671.422 911.629C680.056 918.573 684.899 928.56 688 939v1c-3.895.233-7.788.375-11.687.5l-3.342.203c-8.003.193-8.003.193-10.856-2.449C660.375 935.54 659 933.27 659 930l-4-2-2.121-1.07c-7.704-3.508-15.516-4.597-23.719-2.047-6.969 3.165-11.809 7.722-15.035 14.68-2.8 8.635-2.093 18.244 1.754 26.391 3.392 6.194 7.725 9.242 14.121 12.047 9.351 2.291 17.032.812 25.313-3.875 3.565-2.819 5.977-5.665 7.968-9.755C665 962 665 962 667.452 961.432l2.872.079 3.115.049 3.248.127 3.283.068L688 962c-1.289 11.764-7.348 21.11-16 29-11.428 9.074-25.495 12.171-39.73 10.637-12.934-1.769-23.567-6.725-32.27-16.637l-1.453-1.559c-9.689-11.377-10.753-25.771-9.786-40.055 1.304-13.011 7.837-24.4 17.868-32.672 19.851-14.357 45.144-12.302 64.793.914zm-301.52-2.133c7.723 7.07 9.046 13.989 10.098 24.504h-22l-3-9c-4.867-4.158-9.094-4.571-15.406-4.328-3.388.429-5.789 1.387-8.594 3.328-2.318 2.876-2.318 2.876-2 6.438 1.052 3.749 1.767 4.606 4.98 6.592 4.302 2.068 8.983 3.078 13.583 4.283 25.091 6.976 25.091 6.976 31.438 17.688 3.503 6.993 3.255 16.611 1.125 24.059-3.838 8.295-9.675 12.655-17.914 16.18-5.754 1.982-11.37 1.978-17.398 2.012l-2.713.063c-10.405.06-19.871-2.804-28.1-9.312-6.151-6.759-9-14.953-9-24h23l2 8c3.368 3.999 7.373 4.974 12.363 5.816 4.728.329 9.535-.178 13.355-3.156 1.847-2.393 1.887-4.718 1.73-7.668-.621-2.754-1.953-4.306-4.242-5.914-4.515-2.205-9.411-3.291-14.254-4.556-18.044-4.828-18.044-4.828-24.953-11.522l-1.703-1.621c-3.997-4.201-6.528-8.584-7.297-14.379.294-9.976 2.97-17.335 10.125-24.25 14.592-11.693 40.329-10.617 54.777.746z" fill="#fefefd"/><path d="M913 903h22l.044 5.365.192 17.638.111 10.684.142 12.31.019 3.836c.136 8.238.546 15.524 5.867 22.105 4.354 3.421 7.886 4.552 13.504 4.371 4.527-.659 8.499-2.378 11.477-5.922 3.383-5.508 3.755-11.175 3.85-17.484l.06-3.578.051-3.817.063-3.943.153-10.327.161-10.558L971 903h22l.155 25.689.071 11.931.058 11.535.033 4.38c.145 13.567-1.647 24.278-11.169 34.442-10.099 9.455-20.849 10.498-34.074 10.297-10.218-.381-18.93-3.846-26.074-11.273-8.243-10.918-9.439-21.442-9.293-34.754l.013-4.535.074-11.851.06-12.127L913 903zm-507 0c54.628 0 54.628 0 66 9 7.92 8.238 10.348 17.674 10.211 28.875-.568 8.411-3.626 15.788-9.211 22.125-10.244 8.689-21.377 10.171-34.375 10.063L428 973v26h-22v-96zm22 20v30l9.625.188 2.999.083c5.224.049 8.877-.306 13.376-3.27 3.354-3.626 4.827-6.231 5.313-11.187-.374-4.56-1.259-8.32-4.312-11.812-5.788-4.073-11.1-4.523-18-4.25l-9 .25zm76-20h64v19h-42v19h38v19h-38v20h43v19h-65v-96zm200 0h84v21h-31v75h-22v-75h-31v-21z" fill="#fefefe"/><path d="M710.438 406.25L712 407c1.051 4.292 1.139 8.454 1.123 12.846l.003 2.386-.006 7.946.003 5.742-.007 15.803-.002 17.033-.008 29.518-.012 42.678-.018 69.239-.021 67.268v2.094l-.004 20.821L713 875l-4.375.625-2.461.352L704 876l-2-2 6-1-.562-2.875C707 867 707 867 708 865c-.113-1.443-.288-2.881-.5-4.312-.359-2.775-.515-4.614.063-7.375.6-3.17-.518-5.31-1.562-8.312l1-3c.094-1.872.131-3.747.133-5.621l.004-3.334-.012-3.482.012-3.471-.004-3.338-.003-3.052c-.115-2.407-.528-4.386-1.129-6.701a122.76 122.76 0 0 1 1-5c.113-1.873.175-3.749.188-5.625l.043-2.852c-.051-2.77-.051-2.77-2.23-5.523l2-4-2-2 1.188-1.687L707 784c-1.282-2.748-1.282-2.748-3-5l1.5-1.312c1.832-1.685 1.832-1.685 1.5-4.687l-.5-2c-.665-2.661-.589-4.67.125-7.312.598-2.795.598-2.795-.687-5.75C705 755 705 755 705.875 753.063L707 751c.167-3.542.167-3.542 0-7v-3l-.016-6.228-.036-19.184-.024-11.604-.019-11.234-.011-4.275-.008-5.988-.007-3.438c.111-2.803.479-5.324 1.12-8.049l-2-1 .5-1.5c.462-2.311.535-4.219.5-6.562 0-3.937 0-3.937 1-6.937l-2-1 .5-2.066c.765-4.488.517-8.921.438-13.461.063-3.473.063-3.473.625-6.727.667-2.827.667-2.827-.562-5.746l1-7c.307-4.665.307-4.665-1-9l.434-3.499c.862-6.961.677-13.959.642-20.961l-.024-7.806-.051-16.547-.056-19.236-.032-7.684-.01-4.704-.016-2.152c0-2.64.025-5.067.682-7.634.543-2.235.056-3.585-.569-5.777-.087-1.347-.128-2.697-.129-4.047l-.01-2.377.006-2.541-.003-2.637.005-5.515-.006-8.42.004-5.365-.006-2.535c.016-4.015.283-7.625 1.139-11.563l-.5-3c-.5-3-.5-3-.04-5.142.732-3.879.682-7.65.672-11.589l.003-2.52-.005-5.252.006-8.058-.004-5.107.006-2.44c.082-4.077.082-4.077-1.139-7.892.938-2.625.938-2.625 2-5l-2.812-.937L701 410c6.4-4.062 6.4-4.062 9.438-3.75zM707 755l1 2z" fill="#f2eb1a"/><path d="M784 441c3.632 1.313 6.478 2.907 9.578 5.199 5.511 3.944 11.281 7.275 17.172 10.613 9.166 5.267 17.799 10.855 26.25 17.188l5.25 3.688 2.379 1.66L847 481l7.664 5.371 4.484 3.039c4.565 3.046 4.565 3.046 5.785 5.359.103 3.475-1.929 5.572-3.934 8.23l-2.805 3.988-3.07 4.324L843 529l-2.145 3.227c-4.86 7.366-9.038 14.806-12.855 22.773l-1.934 3.813C812.29 585.831 802.577 614.675 795 644l-2.973 10.879c-.896 3.447-1.626 6.92-2.355 10.406-1.889 8.921-4.126 17.75-6.359 26.59l-1.26 5.012L779 709h-2c-2.672-5.641-1.687-10.222 0-16l1-1-.062-2.75c.064-3.337.815-5.209 2.063-8.25.168-2.709.168-2.709 0-5l3 1-.562-1.812C782 673 782 673 783 670c-.389-2.143-.389-2.143-1-4l2-1-.687-2.312L783 660l1.375-1.312c2.6-2.7 2.304-6.119 2.625-9.687.455-2.618.816-4.632 2-7 .485-2.947.896-5.901 1.305-8.859.76-3.433 2.083-6.024 3.695-9.141.831-2.341 1.621-4.696 2.375-7.062 2.585-7.975 5.409-15.87 8.77-23.555 1.081-2.588 1.081-2.588.855-6.383.875-2 .875-2 2-4l.875-1.812a65.36 65.36 0 0 1 2.176-3.926c1.038-1.722 1.998-3.49 2.949-5.262l-1-2h2l-.187-2.312c.228-3.27.863-3.535 3.188-5.687 1.665-2.997 2.932-5.763 3.875-9.062C823 550 823 550 825.688 547.438L828 545c-.247-2.567-.247-2.567-1-5 .977-2.706 1.405-3.703 4-5 .667-3.069 1-5.858 1-9l3-2c1.311-2.443 1.311-2.443 2-5l-1-2h2v-2c2-2 2-2 5-4 .362-1.326.697-2.659 1-4l2-1-1-5h2l2-4-4-4c2.139-2.139 3.133-2.427 6-3l-18.812-13.187c-3.065-2.007-5.944-4.157-8.812-6.437-3.648-2.887-7.298-5.144-11.375-7.375-2.028-1.296-4.012-2.642-6-4l-2 1a101.17 101.17 0 0 1-6-2v2l-4-2v-2l-2-1v-5l-2.875-.875C786 448 786 448 784 446c-.125-2.625-.125-2.625 0-5z" fill="#50a03e"/><path d="M730 407c3.112 1.498 6.053 3.199 9 5l-3 1-5-3v206h2l.184 3.543.254 4.645.119 2.33c.219 3.931.651 7.62 1.443 11.482l-1 5 1 3c-.156 1.945-.156 1.945-.5 4.125-.528 4.1-.341 7.751.246 11.832.414 3.328.315 5.86-.746 9.043l1 3c.068 1.478.085 2.958.063 4.438l-.027 2.309L735 683c0 3.096.191 5.884.563 8.938.383 3.616.403 6.522-.562 10.063v3l-.562 2.438c-.453 2.651-.197 4.032.563 6.563v3h-2l.494 3.507c.515 4.135.636 8.224.604 12.388l-.004 2.164-.031 6.754-.014 4.584L734 758l.035 5.926.027 3.387.035 3.363c-.094 3.203-.494 6.182-1.098 9.324h-2l.016 2.384c.171 30.546-.426 61.077-1.016 91.616l16-1c2.111-6.172 2.111-6.172 1-11 .304-1.672.642-3.338 1-5l.719-4.977.387-2.781.789-5.758.387-2.773.346-2.522C751 836 751 836 752 833l1.063-7 .535-3.75c.464-3.2.464-3.2.402-6.25.711-7.342.711-7.342 2.031-10.344 1.18-3.237 1.165-5.845 1.094-9.281l-.055-3.414L757 790v-3l-.125-2.562C757 782 757 782 759 780c-.319-2.108-.319-2.108-1-4l1 2c3.35-3.35 2.41-7.958 2.559-12.52.465-3.67 1.458-5.429 3.441-8.48.557-2.195.557-2.195.688-4.312L766 749l4 2c-2.551 24.4-6.807 48.677-11.5 72.75-1.38 7.287-2.52 14.604-3.625 21.938l-.518 3.384c-.998 6.748-1.691 13.451-2.107 20.26C752 872 752 872 751 875h-22c-.744-3.721-1.125-6.501-1.126-10.198l-.008-3.13.007-3.422-.005-3.655.001-10.049-.004-10.863v-21.4l.001-17.636v-2.556l-.001-5.148.006-48.526-.001-40.613.528-221.577.092-14.311.168-24.391.055-8.052.084-10.901.017-3.242.029-2.913.019-2.531C729 408 729 408 730 407z" fill="#519f44"/><path d="M731 410l4.828 1.41 2.716.793c2.815.913 5.027 2.11 7.456 3.797 4.108 2.754 8.252 5.402 12.482 7.964l6.975 4.263 8.742 5.234L778 435.75l3.375 1.984c3.281 2.832 3.687 5.112 4.625 9.266 1.902 1.452 1.902 1.452 4 2l2 1-1 5h-2l-2-2c-1.9-1.242-1.9-1.242-4-2-2.993.998-3.948 1.752-6 4v-6l-1 2h-2l-1 3-.25-2.875c-.401-3.23-.401-3.23-2.812-4.5L768 446l-1 2v-7l-1.25 1.563C764 444 764 444 762.125 444.063 760 443 760 443 757.5 439.938L755 437h-4c-2-2-2-2-3-4h-2l-1 3-1-2c-2.139 1.792-2.139 1.792-2.5 4.063L741 440l-2 1v13h-2v2.938V461l-2 2 2 3-2 2c-1.082 4.098-1.082 4.098 0 8l-1 4 1 2c-.089 1.618-.245 3.232-.434 4.841-.633 6.252-.676 12.422-.629 18.702l.011 3.537.072 14.819c.068 13.421.019 26.718-1.021 40.101l.035 5.008c.026 1.997-.003 3.995-.035 5.992l-1 1h1v14h-2l1.063 1.75c1.126 2.702.686 3.504-.062 6.25l.461 2.234c.602 3.09.636 5.932.602 9.078l-.027 3.238L733 615h-2v6h-1l-.052-61.714-.024-28.672L731 410z" fill="#46a93a"/><path d="M431.688 590.625l2.762.039c2.597.342 4.305 1.021 6.551 2.336v2l1.743.81c2.33 1.229 4.283 2.619 6.366 4.229l2.285 1.758 2.355 1.828 2.402 1.852L462 610c-3.623 1.208-4.641.543-8-1v-3h-2v2l-6-1-1-2-2.312-.375c-3.283-.763-4.509-2.124-6.687-4.625l-3 2c-2.375-.312-2.375-.312-5-1l-2.687-.5C423 600 423 600 421 599v2l-2.23 1.207-2.957 1.605-2.918 1.582-5.633 3.305C405 610 405 610 403 610l-1 2-3 1v2l-2.047.953c-6.594 3.152-6.594 3.152-11.953 8.047l-2 1v2c-3.462 3-3.462 3-6 3l-1 2-5.309 3c-1.866 1.008-1.866 1.008-3.691 3l-2.937 1.313c-3.391 1.868-4.561 3.156-6.062 6.688.776 3.075.776 3.075 3 5h4v2l1.813.875C369 655 369 655 372 657c1.939.627 3.901 1.183 5.875 1.688l3.117.824c3.088.501 5.002.203 8.008-.512 2.063.051 2.063.051 4 .313l1.938.238c2.499.544 4.707 1.456 7.063 2.449l2.289.895c5.473 2.151 10.833 4.483 16.168 6.957a91.88 91.88 0 0 0 5.242 2.172C428 673 428 673 430 675h3l2 3c2.552 1.205 2.552 1.205 5 2v2h3l3 3c1.976 1.046 3.974 2.054 6 3v2h2v4l1.688.25c2.313.75 2.313.75 4.813 2.813 2.5 2.346 2.5 2.346 6.5 1.938v2l1.875.188L471 702l.813 2.375c1.726 3.816 4.411 4.062 8.188 5.625 2.438 2.688 2.438 2.688 4 5l-1 2-2.203-1.687c-6.383-4.844-12.824-9.387-19.594-13.684L459 700v-2l-1.762-.344c-2.446-.717-3.976-1.683-6.051-3.156-4.229-2.899-8.548-5.603-12.937-8.25l-1.933-1.178c-3.361-2.018-6.65-3.699-10.317-5.072l-4.125-2.062c-2.312-1.192-4.391-2.109-6.875-2.937v-2l-2.22-.407c-2.522-.538-4.836-1.226-7.265-2.081l-2.558-.885-2.708-.939c-8.659-2.945-17.291-5.288-26.219-7.24-22.925-5.049-22.925-5.049-31.031-9.447-1.352-2.156-1.352-2.156-2-4 2.908-3.947 5.991-6.729 9.938-9.625l3.09-2.289c1.739-1.22 3.507-2.404 5.332-3.492 4.556-2.75 8.816-5.937 13.139-9.035 4.17-2.97 8.389-5.79 12.749-8.473 2.105-1.304 4.149-2.685 6.19-4.085 3.568-2.391 7.2-4.533 10.973-6.582l9.715-5.48 3.445-1.973 5.217-3.088c3.774-2.322 6.467-3.391 10.9-3.252z" fill="#d30409"/><path d="M781.316 1034.734c4.618 3.472 7.453 7.561 8.684 13.266.632 6.058.183 11.695-3 17-4.138 4.608-8.601 7.643-14.867 8.301-7.822.03-12.798-.42-18.883-5.676-4.549-5.307-6.427-9.611-6.25-16.625 1.066-6.403 2.829-10.838 8-15l2.063-1.75c6.782-4.375 17.528-3.487 24.254.484zm-22.066 11.078c-1.639 2.869-2.12 4.872-2.25 8.188 1.213 4.209 2.152 6.369 5.688 9 4.138 1.249 7.2 1.362 11.313 0 3.601-2.529 5.223-4.667 6-8.937.254-4.083-.572-6.695-3-10.062-6.801-4.435-12.063-4.078-17.75 1.813z" fill="#fdfcfa"/><path d="M495 723h3l1 2 2 .438 2 .563 1 3 4.301 2.684c3.232 2.504 5.408 5.968 7.699 9.316l-1 2 2.813.25c3.188.75 3.188.75 5.063 2.688C524 748 524 748 524 750l2.25.688c3.272 1.562 4.61 3.435 6.75 6.313l2 1 2 3 2.063 1.938c1.987 2.115 2.535 3.243 2.938 6.063l1.875.25C546 770 546 770 547 771.688l1 2.313 4 6 1.625 2.813c1.188 2.31 1.188 2.31 3.375 3.188 1 1.75 1 1.75 2 4l1.188 2.563C561 795 561 795 560 798l4-1 1.242 2.371 1.633 3.066 1.617 3.059c1.264 2.605 1.264 2.605 3.508 3.504l-1 7h2l2 7h3l1-2 1 3-1 2h3c3.286 7.429 3.286 7.429 4 11h2v4h2c3.286 7.429 3.286 7.429 4 11l2-1 2.148 5.078c.577 1.303 1.187 2.592 1.824 3.867 1.1 2.2 2.1 4.429 3.09 6.68.945 2.148 1.888 4.276 2.938 6.375h16c-1.975-6.905-1.975-6.905-4.625-13.562-2.87-7.175-2.518-14.809-2.375-22.437 3.194 4.791 4.618 10.335 6.423 15.769l2.12 6.274 1.34 4.012 1.231 3.671c.8 2.956 1.081 5.239.886 8.274l-12.812.188-3.682.076-3.525.029-3.253.048C601 875 601 875 599.184 873.604c-1.395-1.89-2.136-3.642-2.934-5.854-4.4-11.446-9.901-22.202-15.961-32.848l-1.25-2.199-1.119-1.948C577 829 577 829 576 826l-2-1c-1.07-1.559-1.07-1.559-2.125-3.437l-1.07-1.871C570 818 570 818 570 816l-2-1c-.625-2.062-.625-2.062-1-4h-2l-.996-1.949c-6.155-11.693-13.995-22.115-21.879-32.676l-1.984-2.66-1.883-2.504-1.683-2.241c-1.433-1.793-2.927-3.377-4.575-4.97l-3.125-3.625c-3.386-3.901-6.997-7.518-10.676-11.141-2.061-2.094-3.983-4.248-5.887-6.484-2.105-2.47-4.215-4.599-6.75-6.625L503 734v-2l-1.625-.687c-3.16-1.746-5.643-3.953-8.375-6.312l2-2z" fill="#c80c10"/><path d="M566 796c1.676 2.057 2.932 3.819 3.875 6.313 2.03 4.85 4.742 8.765 9.125 11.688l1 3-2 3 3-1 4 6.063c1.846 2.908 1.846 2.908 4 4.938l.375 1.875c.846 2.875 2.432 4.126 4.625 6.125l3 3 5-2 4 4c1.056-5.064 1.056-5.064 0-10l-1.5-2.187c-2.05-3.843-2.228-7.515-2.5-11.812l3-1 .551 2.23c1.763 7.31 1.763 7.31 5.449 13.77l2.059 1.203C615 837 615 837 615.539 840.109l.086 3.641c.235 5.11.667 9.395 2.375 14.25l2.063 6.188 1.035 3.043c.733 2.251 1.344 4.472 1.902 6.77l-8.312.25-2.381.102c-5.79.099-5.79.099-8.244-2.039-1.148-2.498-2.018-4.912-2.75-7.562l-.762-2.703L600 860h-2l-2-7h-3l-.375-2.625c-.606-3.27-1.508-6.248-2.625-9.375h-2v-4h-2l-2-3.812-1.125-2.145C582 829 582 829 582 826h-3v-4l-4 1c-1.461-2.647-2-3.894-2-7h-2c-1-3-1-3-.062-5.187L572 809l-3-1c-1.422-1.742-1.422-1.742-2.75-3.875l-1.359-2.117C564 800 564 800 565 797l1-1z" fill="#e20205"/><path d="M710.438 406.25L712 407c1.051 4.292 1.139 8.454 1.123 12.846l.003 2.386-.006 7.946.003 5.742-.007 15.803-.002 17.033-.008 29.518-.012 42.678-.018 69.239-.021 67.268v2.094l-.004 20.821L713 875l-4.375.625-2.461.352L704 876l-2-2 2.875-.375c3.212-.342 3.212-.342 5.125-2.625.297-2.723.297-2.723.234-5.974l.004-3.894-.027-4.329-.004-4.58-.026-10.036-.038-16.519-.05-24.329-.087-63.159-.009-10.788.475-192.496.092-22.658L711 408l-3.312 1.563C704 411 704 411 701 410c6.4-4.062 6.4-4.062 9.438-3.75z" fill="#e1d751"/><g fill="#fdfdfb"><use xlink:href="#B"/><use xlink:href="#B" x="-48"/></g><path d="M968 559c3.553 1.275 6.207 2.74 9.125 5.125 3.468 2.784 7.001 5.421 10.625 8 7.71 5.609 7.71 5.609 10.25 8.875-.188 2.011-.188 2.011-1 4-2.434 1.556-4.737 2.858-7.312 4.125l-2.053 1.051-7.99 3.941c-1.84.886-1.84.886-3.645 2.883l-5.5 3.125c-5.999 3.458-11.209 7.432-16.5 11.875l-5.5 4.5-2.469 2.031C944 620 944 620 942 620l-.758 1.773c-1.407 2.522-2.929 3.977-5.117 5.852l-2.055 1.789C932 631 932 631 929.82 632.078c-2.358 1.194-2.859 2.519-3.82 4.922h-2l-.762 1.789c-1.393 2.487-2.848 3.792-5.051 5.586-3.527 2.98-6.299 6.034-9.187 9.625l-5 5-6.328 7.207L896 668h-1v-6h2l.375-1.875C898 658 898 658 900 656l2.063-.937c2.283-.967 2.283-.967 2.938-4.062l3 1-1-4h2v-2h2v-2c1.742-1.635 3.598-3.078 5.469-4.562L918 638v-2h3l2-7 4 1 .125-1.687c1.344-3.553 3.885-5.022 6.875-7.312l2 1v-2l2.375-1.875c2.663-1.856 2.663-1.856 3.625-4.125 2.009-4.017 6.001-6.223 10-8v-2h4l.813-1.812c2.769-5.1 6.549-6.245 11.813-8.125 2.398-1.073 3.589-2.192 5.375-4.062h2v-2l5-4 2-3 2-3-2.437-.75L980 576c-.562-1.875-.562-1.875-1-4-1.77-2.021-1.77-2.021-4-4l-2.625-2.687c-2.148-2.325-2.148-2.325-4.375-3.312v-3z" fill="#31597c"/><path d="M613 1033l11.125-.25 3.473-.11c6.131-.067 9.788.179 14.402 4.36 3.298 4.727 3.904 9.396 3 15-2.22 4.441-4.495 6.912-9 9-4.305 1.28-8.546 1.075-13 1v10h-10v-39zm10 8v12c5.531.439 5.531.439 10.5-1.5l1.5-1.5c-.122-4.734-.122-4.734-2.625-8.437-3.166-.75-6.135-.687-9.375-.562z" fill="#fefefc"/><path d="M823 604h1v5l2 1c.972 2.38 1.175 3.537.258 5.965l-1.133 1.973C823.357 621.206 822 624.197 822 628l-2 1c-.467 2.126-.467 2.126-.625 4.563l-.227 2.504L819 638l-2.312.625c-3.637 1.861-4.219 3.598-5.687 7.375-1.859 6.068-3.464 12.307-2.375 18.625.455 4.091-.479 4.99-2.625 8.375-.413 2.022-.626 4.009-.816 6.063-.223 2.353-.679 4.63-1.184 6.938l-3 1 .625 2.375L802 692l-2 2 .906 6.102C801 702 801 702 799.563 703.813L798 705v3l-2 1 1 3-.937 2.688c-1.065 3.321-.985 5.8-.867 9.242-.294 3.121-1.795 5.363-3.316 8.055-.994 2.279-1.056 3.798-.941 6.266.069 4.125-.459 4.732-2.937 7.75.399 2.098.399 2.098 1 4l-2 2 1 2-1 2-3 1c-1.092 1.933-1.092 1.933-2 4l-2 2c-.719 2.318-1.391 4.651-2 7-2.928-8.783 3.154-22.092 5.802-30.657 1.819-5.929 3.282-11.846 4.506-17.929 1.023-5.053 2.219-10.062 3.422-15.074l2.883-12.461c3.572-15.585 7.745-30.86 12.699-46.066l.789-2.432 2.262-6.861.672-2.041c1.356-4.014 3.021-7.719 4.965-11.478.524-1.548 1.007-3.111 1.438-4.687 1.585-5.541 3.542-10.918 5.563-16.312zm-22 91l1 2-2-1 1-1z" fill="#2c5c84"/><path d="M799 1033h27v8h-17v7h15v8h-15v8h17v8h-28l-.055-15.698-.021-5.343-.022-7.67-.016-2.421c-.001-5.64-.001-5.64 1.113-7.868z" fill="#fdfdfd"/><path d="M864 749l2 4-3 5-1 3.75-1 3.25-3 1-.437 2.875C857 772 857 772 856 774l2 1v3h-2c-1.158 2.947-1.158 2.947-1 6l-3 5v3h-2l-1.562 4.875-.879 2.742c-.826 2.381-.826 2.381.441 4.383l-1.5 1.313c-1.832 1.685-1.832 1.685-1.5 4.688l-2-1 .188 2.875L843 815l-3 2v3l-1.187 1.875L838 824c1.282 2.748 1.282 2.748 3 5l-3 1c-1.938 2.773-1.938 2.773-3 5l-1 1c-.809 2.345-1.098 3.642-.437 6.063L834 844l-2 3c-1.196 2-1.196 2-.937 4.5C831 854 831 854 829 856l-2 7 2 1h-2l-1 2-1 1v3l-2 1v3h-8c.381-5.994 1.399-10.271 4.012-15.648 1.666-3.965 2.317-8.121 2.988-12.352h2v-6h2l-.187-3.187c.195-3.974.755-5.725 3.188-8.812h2l.313-1.937c.927-4.127 2.304-8.069 3.688-12.062h2l.313-2.562c.758-3.789 2.138-6.904 3.688-10.437.743-2.319 1.375-4.645 2-7h2l.48-1.73c2.626-9.127 5.57-18.132 10.52-26.27.603-1.421 1.17-2.858 1.688-4.312L859 758h2l3-9z" fill="#864691"/><path d="M1024 597c9.618 4.414 17.999 9.541 26.461 15.861 2.042 1.512 4.131 2.951 6.226 4.389 6.058 4.215 11.966 8.638 17.889 13.04l2.423 1.796 2.188 1.626c1.785 1.338 1.785 1.338 3.813 2.288v2l2.199.742c3.114 1.398 5.115 3.071 7.613 5.383l2.395 2.195L1097 648c-1 3-1 3-2.931 4.065a206.87 206.87 0 0 1-18.131 5.873l-5.539 1.555-2.755.769-11.581 3.302-2.067.6c-5.882 1.739-11.61 3.822-17.335 6.017-2.66.82-2.66.82-4.66-.18 1.386-2.772 2.869-2.844 5.75-3.875 4.067-1.537 6.879-3.367 10.25-6.125l3 1 2-4h3l1.875-1c2.54-1.195 4.347-1.071 7.125-1l3-1 1-3c2.063-.687 2.063-.687 4-1l-4-5c1.25-1.5 1.25-1.5 3-3h4c-1.274-2.038-2.611-4.039-4-6h-2c-1-1-1-1-1.187-2.812-1.232-3.318-3.911-4.293-6.812-6.187l-.937-1.996c-1.343-2.533-2.517-2.973-5.125-4.066-2.16-.91-2.16-.91-3.937-1.937l-1-3-3 1-1.187-2.312c-1.986-2.944-3.773-3.962-6.812-5.687v-2l-5-1v-2l-1.898-.262-2.477-.426-2.461-.387c-2.164-.926-2.164-.926-3.453-3.508L1024 597z" fill="#86528a"/><path d="M671 758c5.047 5.047 5.254 13.416 5.938 20.188.714 7.071 2.157 13.598 4.117 20.422 1.047 3.754 1.803 7.5 2.453 11.34.537 2.236 1.452 4.008 2.492 6.051.383 1.991.726 3.991 1 6l.813-1.625L689 818l1.438-3.187C692 812 692 812 695 811v-2h3v5l-4-1 1 3h4c.372 5.822-.624 10.648-3 16-1.167 1.167-2.348 2.32-3.562 3.438-1.682 1.615-1.682 1.615-2.437 4.563h3c1.777 5.212 3.154 9.473 3 15l-4-3 1 3c-.173 3.564-.515 7.099-.844 10.652-.197 3.799-.197 3.799.844 7.348l3 2h-7c-2.231-5.546-2.609-10.979-3.062-16.875-.522-6.397-1.076-12.764-1.937-19.125l-.328-2.486c-1.395-10.532-2.811-21.052-4.672-31.514l-.754-4.32L675 783l-2.062-11.125-.564-3.035-.533-2.91-.489-2.649C671 761 671 761 671 758z" fill="#f3f019"/><path d="M421 599l6 1v2c-5.512 2.881-5.512 2.881-8.312 3.563L417 606l-1 2-3 1-2 2c-5.538 3-5.538 3-8 3l-1 2-2 .438-2 .563-1 3c-2.562 1.188-2.562 1.188-5 2v2h-2v2l-3 3-.875 2c-2.289 4.069-6.925 5.44-11.125 7l1 8h-2l1 3h4v2h3l.625 1.938L384 655l6 1c1.875 2.063 1.875 2.063 3 4l-2.25-.062c-2.624-.082-2.624-.082-4.488.672-3.359.58-5.944-.362-9.199-1.297l-3.652-1.012c-3.477-1.326-5.738-2.73-8.41-5.301v-2l-2.312.625C360 652 360 652 357 650l1-7h2l.688-1.875c1.717-2.78 3.309-2.938 6.313-4.125l2.563-2.625C372 632 372 632 376 632l1-3 6-2-1-3 3-1 1.75-1.812c3.466-3.369 7.274-6.187 12.25-6.187v-2h2l1-2c2.513-1.875 5.213-3.472 7.875-5.125l2.223-1.418 2.145-1.34 1.964-1.231C418 601 418 601 421 601v-2zm-49 51l1 2 1-2h-2z" fill="#e10205"/><path d="M574 711c3.849 1.283 4.151 2.456 6 6l2.188 5.145 4 8.293 1.863 3.695.971 1.923 2.896 5.812 12.025 23.374 4.706 9.063c1.354 2.787 1.354 2.787 3.164 5.695 5.438 9.364 9.124 20 12.875 30.125l1.387 3.695C627 817 627 817 626 820h-2v2h2c1.292 4.12 2.263 7.668 2 12h2c2.04 4.93 3.407 8.58 3 14h2l3 10.188.867 2.908.82 2.822.762 2.587c.569 2.576.65 4.866.551 7.495-1.802-3.341-2.989-6.752-4.172-10.355l-.615-1.863-1.295-3.936-3.375-10.213-.67-2.021-5.311-15.425-.715-2.008L623 823c-1.467-4.148-2.862-8.14-3.562-12.5L619 808l-2-1c-.605-1.723-.605-1.723-1.187-4.062-3.373-11.814-9.077-22.801-14.967-33.53C598 764.196 598 764.196 598 762l-2-1a135.4 135.4 0 0 1-2-5l-3.75-7.625-1.08-2.154c-2.451-4.863-5.018-9.651-7.655-14.417C573.91 717.731 573.91 717.731 572 712l2-1z" fill="#ec8618"/><path d="M1028 670l4 1c-2.386 1.591-4.277 2.611-6.887 3.664l-2.319.949-2.482 1.012c-8.994 3.735-17.698 7.839-26.312 12.375l-1.971 1.018c-9.197 4.775-17.424 10.269-25.535 16.729l-2.045 1.628-1.802 1.461C961 711 961 711 958 712v2l-1.937.313L954 715l-1 3c-1.53 1.375-3.125 2.677-4.75 3.938-6.723 5.376-13.019 11.127-19.25 17.063l-1.666 1.579c-7.741 7.381-14.581 15.129-21.012 23.671l-4.052 5.277c-4.202 5.413-8.348 10.851-12.27 16.473l-1-3h2l.375-3.875c.375-3.875.375-3.875 2.625-6.125.888-1.965.888-1.965 1.625-4.125l.789-2.195L897 765h2c2.224-1.925 2.224-1.925 3-5h2l1-3 2-1 1-2 3-1 1-4c1.531-1.605 1.531-1.605 3.5-3.187 3.274-2.741 6.393-5.567 9.438-8.562l2.277-2.234c1.993-1.984 1.993-1.984 2.785-5.016l5-3 3.5-3.187c2.415-2.14 3.145-2.767 6.438-3.187L947 721v-2h2l1-6h2l1-2c6.235-4 6.235-4 11-4l-1-3 2.512-1.18c3.964-2.069 7.588-4.464 11.301-6.945 13.378-8.777 27.431-15.738 42.188-21.875l2.703-1.191C1024 672 1024 672 1028 672v-2z" fill="#815480"/><path d="M893 668l2 1-1.398 1.914-4.203 5.785-4.734 6.445C877.395 693.006 871.167 703.423 865 714l-1.491 2.557-8.117 14.045-3.054 5.167c-4.332 7.257-8.039 14.66-11.525 22.356l-1.537 3.34c-2.946 6.443-5.721 12.927-8.275 19.535h-1l1-7 .336-2.305c1.624-9.592 6.147-17.828 10.551-26.406 1.162-2.389 2.155-4.812 3.113-7.289h2l.281-1.625c1.273-4.208 3.848-7.767 6.125-11.5 1.329-2.398 2.132-4.206 2.594-6.875h2l.805-2.137c1.26-3.019 2.735-5.815 4.32-8.676l1.633-2.957L866 702h2l.375-1.75c.631-2.273 1.514-4.175 2.625-6.25h2l.813-3.437L875 687l3-1c1.05-1.85 1.05-1.85 2-4 1.5-2.25 1.5-2.25 3-4h2l1-2 4-4a122.59 122.59 0 0 0 3-4z" fill="#2c587d"/><path d="M784 441c3.632 1.313 6.478 2.907 9.578 5.199 5.511 3.944 11.281 7.275 17.172 10.613 9.166 5.267 17.799 10.855 26.25 17.188l5.25 3.688 2.379 1.66L847 481l7.664 5.371 4.484 3.039c4.655 3.107 4.655 3.107 5.645 5.543.35 3.456-1.762 5.396-3.793 8.047-1.75 1.875-1.75 1.875-3 3 .569-3.982 1.89-6.606 4-10v-2l-6-3v-2l-2.078.785c-4.229.311-6.493-1.862-9.672-4.348l-3.746-2.805-1.824-1.382c-2.108-1.57-4.285-3.013-6.493-4.438-3.065-2.007-5.944-4.157-8.812-6.437-3.648-2.887-7.298-5.144-11.375-7.375-2.028-1.296-4.012-2.642-6-4l-2 1a101.17 101.17 0 0 1-6-2v2l-4-2v-2l-2-1v-5l-2.875-.875C786 448 786 448 784 446c-.125-2.625-.125-2.625 0-5z" fill="#4ba03a"/><path d="M731 410c11.197 3.359 11.197 3.359 15 6 4.864 3.261 9.803 6.344 14.813 9.375 7.813 4.749 15.526 9.636 23.188 14.625l-1 5-11-6v-2h-3v-2l-3.125-.75c-3.83-1.085-6.559-3.04-9.875-5.25-2.618-1.102-5.255-2.104-7.926-3.07C746 425 746 425 745 423h-7v3l-4 2 2 2h-3l.563 2c.568 3.893.03 7.114-.562 11h-2v-33z" fill="#47a034"/><path d="M805 681l-1 5-3 1 .625 2.375L802 692l-2 2 .906 6.102C801 702 801 702 799.563 703.813L798 705v3l-2 1 1 3-.937 2.688c-1.065 3.321-.985 5.8-.867 9.242-.294 3.121-1.795 5.363-3.316 8.055-.994 2.279-1.056 3.798-.941 6.266.069 4.125-.459 4.732-2.937 7.75.399 2.098.399 2.098 1 4l-2 2 1 2-1 2-3 1c-1.092 1.933-1.092 1.933-2 4l-2 2-2 7c-2.921-8.764 3.134-22.08 5.798-30.622 1.933-6.261 3.39-12.469 4.561-18.921L789 718l2-1 .66-5.687c.683-4.65 2.426-9.031 4.168-13.379 1.394-3.491 2.314-6.483 2.609-10.246C799 684 799 684 800.938 682c2.063-1 2.063-1 4.063-1zm-4 14l1 2-2-1 1-1z" fill="#225d8e"/><path d="M907 681l2 1-3.809 4.395c-1.4 1.713-1.4 1.713-2.191 4.605h-2v3l-4 4c-2.432 3.906-4.334 7.714-6.082 11.973-1.63 3.601-3.596 7.024-5.516 10.477-1.397 2.462-1.397 2.462-2.398 4.758C882 727 882 727 879 729l-.937 2.5c-1.062 2.5-1.062 2.5-3 3.438-3.06 1.576-3.729 3.995-5.062 7.063h-2l-.309 1.609c-.894 3.093-2.29 5.775-3.754 8.641l-1.66 3.266L861 758h-2l-1.145 3.621c-2.201 6.604-4.892 13.008-7.543 19.441l-1.549 3.779L845 794h-2l-.297 1.836c-1.149 6.441-3.08 12.179-5.703 18.164h-2l-.367 1.793c-.9 4.245-1.837 8.231-3.633 12.207h-2l-2 5-1-2c.949-2.433 1.961-4.762 3.063-7.125 2.549-5.622 4.895-11.26 7-17.062 2.149-5.873 4.572-11.525 7.262-17.176 1.286-2.739 2.473-5.51 3.633-8.305C854.215 763.858 862.386 746.71 873 731l3.438-5.437c3.038-4.775 6.17-9.482 9.32-14.184l7.867-12.066 4.149-6.416 3.191-4.948 1.598-2.449 1.316-2.031C905 682 905 682 907 681z" fill="#795b70"/><path d="M730 407c3.112 1.498 6.053 3.199 9 5l-3 1c-2.687-1.437-2.687-1.437-5-3l.003 3.492-.205 91.89-.084 17.784-.159 33.421-.181 38.157L730 673h-1l-.391-28.23-.182-13.125-.088-140.136.033-4.869.017-2.442.123-19.956.125-19.465.072-11.532.071-10.72.032-5.813.03-3.458.02-3.02C729 408 729 408 730 407z" fill="#69a058"/><path d="M766 749l4 2c-1.358 12.991-3.315 25.857-5.459 38.74l-1.082 6.595-1.584 9.603-.48 2.979-.465 2.736-.399 2.406C760 816 760 816 758 818c-2.125.625-2.125.625-4 1 0-4.589.173-9.119 2.031-13.344 1.18-3.237 1.165-5.845 1.094-9.281l-.055-3.414L757 790v-3l-.125-2.562C757 782 757 782 759 780c-.319-2.108-.319-2.108-1-4l1 2c3.35-3.35 2.41-7.958 2.559-12.52.465-3.67 1.458-5.429 3.441-8.48.557-2.195.557-2.195.688-4.312L766 749z" fill="#549c42"/><path d="M431.5 590.75l2.844-.016c2.697.27 4.346.892 6.656 2.266v2l1.743.81c2.33 1.229 4.283 2.619 6.366 4.229l2.285 1.758 2.355 1.828 2.402 1.852L462 610c-3.623 1.208-4.641.543-8-1v-3h-2v2l-6-1-1-2-2.312-.375c-3.283-.763-4.509-2.124-6.687-4.625l-3 2c-2.375-.312-2.375-.312-5-1l-2.687-.5C423 600 423 600 421 599v2h-5l3-4h2l.25-1.875c.75-2.125.75-2.125 2.453-3.242 2.731-1.05 4.875-1.149 7.797-1.133z" fill="#dd0105"/><path d="M1024 596c-3.652 1.072-6.264.764-10 0v-2l-6.312.375-3.551.211c-3.294.2-3.294.2-6.137 2.414h-3l-1.5 1.5-1.5 1.5h-3l-1 3-4 1-1 2h-3l-1 8-5 1-1 3-4 1-5 3h-2l-4 5-4 5h-2v2h-2l-1 2-1.937.938c-2.382 1.016-2.382 1.016-4.062 4.063h-2l-.258 1.766c-.953 2.87-2.334 4.027-4.617 5.984l-2.117 1.859C932 652 932 652 929 652l1.391-1.355c2.813-2.772 5.475-5.474 7.922-8.582L940 640h2l.807-1.79c1.22-2.259 2.477-3.752 4.283-5.565l1.863-1.875 1.985-1.957 2.026-2.01C968.051 612 968.051 612 972 612l1-3c1.392-1.255 1.392-1.255 3.176-2.488l1.991-1.384 2.146-1.441 2.196-1.478c14.538-9.637 24.828-13.557 41.491-6.21z" fill="#82488b"/><path d="M711 682h1l.391 52.015.182 24.172L713 875l-4.375.625-2.461.352L704 876l-2-2 2.875-.375c3.212-.342 3.212-.342 5.125-2.625l.278-7.416.018-2.344.023-7.817.03-5.587.055-15.204.068-15.875.117-30.079.138-34.236L711 682z" fill="#e3dc48"/><path d="M558 718c2.35 2.173 3.919 4.333 5.496 7.113l1.426 2.501 1.516 2.698 1.582 2.796 11.48 20.642 1.49 2.7c6.525 11.961 6.525 11.961 8.01 16.55l-1 2-3-2v-2l-3-1c-1.625-3.437-1.625-3.437-3-7l-1-2-3-1-1-3a138.39 138.39 0 0 0-1.812-3.687l-3.199-6.402c-2.05-4.222-4.322-8.048-6.988-11.91-2.575-5.151-3.084-11.374-4-17z" fill="#df0105"/><path d="M589 775c2.202 2.734 3.635 5.228 4.859 8.512 1.852 4.804 3.895 9.495 5.999 14.193 4.177 9.329 8.214 18.695 11.892 28.233l1.052 2.689.933 2.464.819 2.152C615 835 615 835 614 837c-4.335-3.194-6.557-5.355-7.457-10.727l-.687-5.812L605 818c-2.442-1.178-2.442-1.178-5-2-4.248-7.738-4.266-16.364-5-25h-2c-3.67-4.991-4.178-9.945-4-16z" fill="#d00a0d"/><path d="M846 553h1l-.125 3.25c-.181 3.6-.181 3.6 1.313 5.75.813 2 .813 2-.312 5.625-1.987 3.577-2.451 3.77-5.875 5.375-1.761 2.98-2.946 5.83-4 9.125-1 2.875-1 2.875-2.625 5-1.769 2.025-1.769 2.025-1.375 5.875h-2l-.312 2.313c-.735 2.872-1.359 3.918-3.687 5.688h-2v2h-2c1.693-6.851 4.32-13.099 7.37-19.438a152.02 152.02 0 0 0 5.806-13.804C838 568 838 568 840 567c.801-1.947.801-1.947 1.438-4.25 1.128-3.589 2.365-6.653 4.563-9.75z" fill="#215c8d"/><path d="M867 816h2c-1.256 3.327-2.675 6.31-4.539 9.336l-1.497 2.452-1.589 2.587c-7.328 12.106-14.027 24.027-19.118 37.257-2.055 5.268-2.055 5.268-4.257 6.368.488-6.471 2.821-11.606 5.563-17.437l1.287-2.795L848 847l-3-1h2l-1-4h2l1-4 6-1-1-3 1-3-2-1 1-3c2.563-1.187 2.563-1.187 5-2v-2l1.938-.375L863 822l1-2h2l1-4z" fill="#864c8e"/><path d="M1068 626l6.598 4.406 4.336 2.813L1083 636v2l2.199.742c3.114 1.398 5.115 3.071 7.613 5.383l2.395 2.195L1097 648c-1 3-1 3-2.793 4.027-20.149 7.659-20.149 7.659-25.207 5.973l2.703-1.172 3.547-1.578 3.516-1.547c3.055-1.608 4.974-3.13 7.234-5.703l-2-2v-4c-3.207-4.538-3.207-4.538-8-7v-2l-2.875-.312C1070 632 1070 632 1068 629v-3z" fill="#7a5378"/><path d="M789 718h1c.115 5.415-.318 10.629-1 16h1c1.366 7.451 1.366 7.451-.5 10.25L788 746c.399 2.098.399 2.098 1 4l-2 2 1 2-1 2-3 1c-1.092 1.933-1.092 1.933-2 4l-2 2c-.719 2.318-1.391 4.651-2 7-2.923-8.77 3.14-22.07 5.794-30.62 2.171-7.058 3.836-14.119 5.206-21.38z" fill="#325d80"/><path d="M806 835h4c-2.036 8.282-4.725 16.324-7.487 24.385l-.892 2.626-.799 2.327c-1.085 3.512-1.93 7.095-2.822 10.661h-36v-5l1 4h33v-9c.875-3 .875-3 2-6 .554-2.309 1.049-4.625 1.535-6.949.891-3.929 2.474-7.534 4.027-11.238l1.379-3.293L806 835z" fill="#495a6d"/><path d="M907 681l2 1-3.809 4.395c-1.4 1.713-1.4 1.713-2.191 4.605h-2v3l-4 4c-2.432 3.906-4.334 7.714-6.082 11.973-1.63 3.601-3.596 7.024-5.516 10.477-1.397 2.462-1.397 2.462-2.398 4.758C882 727 882 727 879 729l-.875 2.5c-1.125 2.5-1.125 2.5-3.75 3.813L872 736c.571-4.038 1.819-6.674 4.063-10.062l1.926-2.934L880 720l1.855-2.785 3.902-5.836 7.867-12.066 4.149-6.416 3.191-4.948 1.598-2.449 1.316-2.031C905 682 905 682 907 681z" fill="#7e4e80"/><path d="M495 723h3l1 2 2 .438 2 .563 1 3 4.301 2.684c3.232 2.504 5.408 5.968 7.699 9.316l-1 2 2.75.125c3.25.875 3.25.875 5.563 3.563 1.647 3.233 2.346 5.724 2.688 9.313-4.157-3.398-7.713-6.727-11-11-3.336-3.517-6.881-6.627-10.645-9.668L503 734v-2l-1.625-.687c-3.16-1.746-5.643-3.953-8.375-6.312l2-2z" fill="#c80b10"/><path d="M1028 670l4 1c-2.386 1.591-4.277 2.611-6.887 3.664l-2.319.949-2.482 1.012c-8.994 3.735-17.698 7.839-26.312 12.375l-1.971 1.018C980.763 695.867 970.882 703.055 961 711l-1-3 4-1-1-3 2.512-1.18c3.964-2.069 7.588-4.464 11.301-6.945 13.378-8.777 27.431-15.738 42.188-21.875l2.703-1.191C1024 672 1024 672 1028 672v-2z" fill="#795b70"/><path d="M438 685c5.673-.293 8.991-.006 14 3v2h2v4l1.688.25c2.313.75 2.313.75 4.813 2.813 2.5 2.346 2.5 2.346 6.5 1.938v2l1.875.188L471 702l.813 2.375c1.726 3.816 4.411 4.062 8.188 5.625 2.438 2.688 2.438 2.688 4 5l-1 2-2.203-1.687c-6.383-4.844-12.824-9.387-19.594-13.684L459 700v-2l-1.734-.328c-2.581-.765-4.311-1.883-6.516-3.422-3.705-2.55-7.464-4.949-11.316-7.27L438 686v-1z" fill="#b32021"/><path d="M526 669c3.62 3.419 6.28 6.846 9 11l2.516 3.629c4.529 6.506 9.016 13.033 13.234 19.746l1.984 3.148L554 709l-1 2-3-2v-4l-6-1-.367-1.863-.508-2.449-.492-2.426c-.578-2.515-.578-2.515-2.633-5.262l-3-1v-2l-3-1c-1.465-2.109-1.465-2.109-2.937-4.75-2.116-3.694-4.375-6.943-7.062-10.25v-2h2v-2z" fill="#c81315"/><path d="M557 789c2 1 2 1 3.188 3.375C561 795 561 795 560 798l4-1 1.242 2.371 1.633 3.066 1.617 3.059c1.264 2.605 1.264 2.605 3.508 3.504l-1 7h2l2 7h2l1 6-2-1v-2l-2-1-2.125-3.437-1.07-1.871C570 818 570 818 570 816l-2-1-1-4h-2l-1.102-2.09c-3.323-6.211-6.873-12.13-10.898-17.91 1.875-1.062 1.875-1.062 4-2z" fill="#c90f12"/><path d="M828 781h2c-2.402 7.393-5.083 14.661-7.812 21.938-3.961 10.617-7.719 21.275-11.187 32.063h-1l-.562-4.375-.316-2.461C809 826 809 826 810 824h3c1.532-6.559 2.656-13.054 3.438-19.75C817 801 817 801 819 798h3l-1-6 4-1-1-5h2l2-5z" fill="#475b6f"/><path d="M577 760c3.324 2.691 4.359 6.147 6 10l2 1v2l1.938.563C589 775 589 775 589.813 778.5 590 782 590 782 589 784l2 1c2 3 2 3 2 6h2l2 11-3-1v-2h-2l-.875-3.75c-.741-2.999-1.701-5.505-3.125-8.25v-3h-3l-.625-2.812c-1.264-4.572-3.687-8.409-6.133-12.441-1.415-3.129-1.472-5.35-1.242-8.746z" fill="#df0205"/><path d="M776 710h2c-1.088 7.844-2.457 15.609-4 23.375l-.503 2.556c-.96 4.767-2.091 9.413-3.497 14.069h-1v-5l-2-1v-2l2-1-.07-2.633-.055-3.492-.07-3.445c.199-3.499 1.016-6.151 2.195-9.43v-3a195.97 195.97 0 0 1 3-7h2v-2z" fill="#599944"/><path d="M431.375 590.813l2.898-.043c2.757.233 4.376.821 6.727 2.23v2l1.743.81c2.33 1.229 4.283 2.619 6.366 4.229l2.285 1.758 2.355 1.828 2.402 1.852L462 610c-3.623 1.208-4.641.543-8-1v-3h-2v2l-6-1-1-2c-2.527-.656-2.527-.656-5-1v-2h3v-5l-2.375-.937L436 594c-5.154-.175-9.919.153-15 1 3.436-3.593 5.4-4.154 10.375-4.187z" fill="#d50a0c"/><path d="M1024 596c-3.652 1.072-6.264.764-10 0v-2l-6.312.375-3.551.211c-3.294.2-3.294.2-6.137 2.414h-3l-1.5 1.5-1.5 1.5h-3l-1 3-4 1-1 2h-3l-.73 1.813c-1.525 2.628-3.011 3.597-5.582 5.188-3.404 2.163-6.592 4.404-9.687 7l-2-1 3.875-3.5 2.18-1.969C970 612 970 612 972 612l1-3c1.392-1.255 1.392-1.255 3.176-2.488l1.991-1.384 2.146-1.441 2.196-1.478c14.538-9.637 24.828-13.557 41.491-6.21z" fill="#765872"/><path d="M847 848c-.636 5.731-2.897 10.293-5.473 15.346-2.102 4.279-3.086 7.899-3.527 12.654l-12-1v-1l2.875-.187L832 873c1.311-2.443 1.311-2.443 2-5l2-1v-3l1-3 1-4 3 1-1-4h2l-1-3c3.75-3 3.75-3 6-3z" fill="#84498c"/><path d="M547 770c2.375.188 2.375.188 5 1 1.188 2.438 1.188 2.438 2 5l2 2 2 5 1 2-1 3 3-1 5 5v2h-2v3l-4 1-.437-2.312c-.696-3.325-1.128-5.253-3.562-7.687l1-2-1.812-.687c-2.779-1.668-3.591-3.519-5.187-6.312l-2.25-2-1.75-2c.25-2.75.25-2.75 1-5z" fill="#e30205"/><path d="M365 658c6.936-.215 13.284-.012 20.039 1.66 2.031.552 2.031.552 3.961-.66 2.696.168 5.324.612 8 1v4l2.938.813L403 666l1 3-24.148-6.198L365 659v-1z" fill="#d20208"/><path d="M671 758c5.525 5.525 5.416 14.997 6.158 22.38.693 6.364 2.163 12.307 3.94 18.448 1.548 5.442 2.035 10.332 1.965 15.984l-.014 2.1L683 822h-1l-3.859-22.277c-.774-4.72-1.664-9.405-2.615-14.093l-2.651-14.068-.551-2.967-.52-2.842-.469-2.552C671 761 671 761 671 758z" fill="#e6db48"/><path d="M881.273 506.184C892.29 508.597 902.626 516.016 912 522l3.258 2.063L923 529c-3 1-3 1-5.664-.216l-3.176-1.862-1.707-.992-5.39-3.18-3.615-2.105c-8.768-5.127-8.768-5.127-11.617-7.296-2.428-1.79-4.957-2.5-7.83-3.349v-2l-3.187 1.375L872 513c3.933-7.116 3.933-7.116 9.273-6.816z" fill="#475668"/><path d="M586 482l1 3-3 3-3-1v4l-3 2v3l-.125 2.438c.194 3.979 1.41 5.869 4.25 8.625C584 509 584 509 584 512h-2c-2.124-2.227-3.867-4.773-5.687-7.25l-1.588-2.066-1.486-2.012-1.374-1.841C571 497 571 497 571.242 494.898c1.085-2.717 2.802-4.064 5.008-5.96l2.328-2.035c2.377-1.867 4.797-3.408 7.422-4.902z" fill="#f3ed1c"/><path d="M571 740c3.082 3.606 5.247 7.173 7.313 11.438l1.801 3.699.928 1.916 3.001 5.905.993 1.926 2.777 5.351L589 773l-1 2-3-2v-2l-3-1c-1.625-3.437-1.625-3.437-3-7l-1-2-3-1 2-6h-2l-.875-2.75c-.988-3.122-.988-3.122-2.25-5.375C571 744 571 744 571 740z" fill="#c01719"/><path d="M1024 597c9.594 4.403 17.962 9.513 26.404 15.817 2.335 1.73 4.713 3.395 7.096 5.058l2.367 1.652L1068 625l-4 1v-2l-1.738-.383c-2.305-.629-4.3-1.452-6.449-2.492l-2.105-.992C1052 619 1052 619 1051 616l-3 1-1.187-2.312c-1.986-2.944-3.773-3.962-6.812-5.687v-2l-5-1v-2l-1.898-.262-2.477-.426-2.461-.387c-2.164-.926-2.164-.926-3.453-3.508L1024 597z" fill="#785874"/><path d="M462 611c4.63 2.99 8.948 6.247 13.25 9.688 4.165 3.473 4.165 3.473 8.75 6.313v2l1.688.813c2.525 1.296 4.95 2.612 7.313 4.188v2l3 1-4 2-1-2-3 1c-2.88-2.601-4.217-4.217-5-8l-2-1v-2c-2.652-1.075-5.284-2.095-8-3v-3l-2.812-.875C467 619 467 619 464 617c-1.187-3.125-1.187-3.125-2-6z" fill="#ae2526"/><path d="M730 407c3.112 1.498 6.053 3.199 9 5l-3 1-5-3v47c-1.839-3.677-2.25-4.746-2.243-8.569l-.009-2.719.022-2.911.001-3.002.023-6.271.02-9.638.018-6.088.003-2.929.019-2.691.012-2.379C729 408 729 408 730 407z" fill="#558e49"/><path d="M884 508v2l3.313.313c3.794.707 4.356.932 6.688 3.688l5 3-1 2c-3.142-1.536-6.086-3.057-9-5-2.046-.662-2.046-.662-4.187-1.125L881 512l-1 2-3-1-1.875 2C873 517 873 517 871 517l-.312 2.25c-.742 2.967-1.574 4.556-3.687 6.75h-3c2.389-7.644 7.348-13.084 14.07-17.187C880 508 880 508 884 508z" fill="#255882"/><path d="M825 833l2 2c-.375 2.625-.375 2.625-1 5h-2v6h-2l-.043 1.73c-.393 6.677-2.223 12.137-4.801 18.289A38.14 38.14 0 0 0 815 874h10v1h-13c1.447-7.5 3.786-14.608 6.257-21.82l4.055-12.117 1.551-4.652L825 833z" fill="#735b6c"/><path d="M683 822c2.573 2.573 2.421 3.953 2.781 7.539l.36 3.427.359 3.659.77 7.398.374 3.632c.575 5.384 1.292 10.746 2.025 16.11.352 3.433.389 6.786.332 10.234h6v1h-7c-2.231-5.546-2.609-10.979-3.062-16.875l-.473-5.742-.229-2.77c-.423-4.691-1.024-9.341-1.798-13.988-.55-4.56-.521-9.039-.437-13.625z" fill="#e5d953"/><path d="M603 544l3 1 .375 2.938L607 551l2 1 3.5 6.25 1.844 3.453c1.377 2.741 2.529 5.45 3.656 8.297l2.938 5.75c5.094 10.126 5.094 10.126 6.063 15.25l-1 3-.699-1.69c-4.391-10.56-8.917-20.901-14.437-30.92-1.853-3.371-3.627-6.771-5.363-10.203l-1.469-2.895C603 546 603 546 603 544z" fill="#e7dd45"/><path d="M622 821l4 1c1.292 4.12 2.263 7.668 2 12h2c2.04 4.93 3.407 8.58 3 14h2l3 10.188.867 2.908.82 2.822.762 2.587c.569 2.576.65 4.866.551 7.495-1.802-3.341-2.989-6.752-4.172-10.355l-.616-1.864-1.296-3.937-3.366-10.184-.668-2.016-5.445-15.894-.724-2.052c-.816-2.291-1.625-4.521-2.714-6.698z" fill="#d0923b"/><path d="M887 786h2c-1.328 4.251-3.602 7.224-6.285 10.688-2.565 3.458-4.815 7.1-7.102 10.746-1.819 2.893-3.7 5.735-5.613 8.566-.748-2.224-1.122-3.574-.469-5.859 1.988-3.88 4.12-6.999 7.094-10.203 3.307-3.568 4.321-6.244 5.375-10.937l2-1 2 1 1-3z" fill="#7c5877"/><path d="M834 578c1.167 3.942.652 6.946 0 11v4h-2l-.312 2.313c-.735 2.872-1.359 3.918-3.687 5.688h-2v2h-2c2.192-8.871 6.022-16.825 10-25z" fill="#345d7f"/><path d="M977 565c7.784 4.602 14.467 9.75 21 16-.583 3.165-.723 3.794-3.437 5.813L992 588l-2-1c1.75-3.875 1.75-3.875 4-5-4.567-4.975-9.363-8.789-15.059-12.422L977 568v-3z" fill="#455567"/><path d="M671 843h1l1.709 11.743.869 5.952.547 3.789.508 3.491C676 871 676 871 676 875c-11.849 1.262-23.125.958-35 0v-1l33-1-3-15c-.293-4.746-.293-4.746-.187-8.437l.082-3.809L671 843z" fill="#d79a39"/><path d="M1043 664c-1 2-1 2-3.312 3.125C1037 668 1037 668 1033 668l-1 3-4-1v2l-6.375 2.5-3.586 1.406C1015 677 1015 677 1013 677v-2l5-1v-2c4.594-2.402 9.047-4.424 14-6l4-2c3.133-1.044 3.99-.934 7 0z" fill="#86518b"/><path d="M750 848l2 1c1.262 5.497 1.315 9.856-1 15-.474 3.323-.753 6.653-1 10l-4-1 1.063-3.25c.901-3.602.928-4.447-.062-7.75.313-2.187.313-2.187 1-5l1.063-4.812L750 848z" fill="#4da53c"/><path d="M853 838l3 1-1.723 3.121c-4.552 8.361-8.66 16.711-12.069 25.607-2.012 5.174-2.012 5.174-4.209 6.272.45-6.826 3.165-12.311 6.063-18.437l1.432-3.084L849 845h2v-3h2v-4z" fill="#775770"/><path d="M799 676h1c-.581 16.504-.581 16.504-4 24-1.692 4.477-3.076 8.724-3.562 13.5L792 717l-2 1c.395-8.211 2.35-15.927 4.434-23.833L797.25 683l1.016-4.062L799 676z" fill="#4a586a"/><path d="M784 441c3.792 1.366 6.844 3.105 10.125 5.438l2.57 1.809c1.948 1.482 3.636 2.971 5.305 4.754-4.054 1.158-6.218.837-10-1v-2l-2.875-.875C786 448 786 448 784 446c-.125-2.625-.125-2.625 0-5z" fill="#539b3d"/><path d="M609 778c3.476 3.201 5.41 5.588 7 10l1.07 2.895 1.055 2.918 1.07 2.957L620 799l-3 2-.25-1.75c-.58-2.396-.58-2.396-2.687-3.875-3.156-3.634-3.339-7.724-4.062-12.375l-1-5z" fill="#ee8615"/><path d="M524 745l2 1v2l3 1c1.688 1.438 1.688 1.438 3 3v2l1.75.75c3.736 2.076 5.894 4.182 7.25 8.25l2-2-1 6c-3.582-1.194-3.859-1.986-6-5-3.164-3.843-6.417-7.54-10-11l-3-3 1-3z" fill="#e20205"/><path d="M923 530c4.163 1.537 7.973 3.546 11.813 5.75l1.862 1.064c4.707 2.734 9.112 5.731 13.326 9.186-3.686 1.229-4.525.39-8-1l-3 1c-1.414-2.639-2.372-5.071-3-8l-2-.187c-4.122-1.116-7.658-3.15-11-5.812v-2z" fill="#3e5a73"/><path d="M624 820c1.84.066 1.84.066 4 1a48.46 48.46 0 0 1 2.563 6.938l.631 2.048 1.233 4.094 1.592 5.069c2.114 6.584 2.114 6.584.98 8.852h-2c-1.43-4.672-2.404-9.131-3-14h-2c-1.138-4.266-2-7.565-2-12h-2v-2z" fill="#f6860e"/><path d="M893 668l2 1-1.398 1.914L877 694l-1-3 2-3h2l-.187-2.75c.204-3.542.714-4.777 3.188-7.25h2l1-2 4-4a122.59 122.59 0 0 0 3-4z" fill="#415a71"/><path d="M699 411l2 1-5.875 3.5-3.305 1.969C689 419 689 419 687 419l-1 3c-1.891 1.098-1.891 1.098-4.25 2.063l-2.449 1.02L677 426l-3.062 1.25L672 428v2h-3v2l-6 3-2-1c6.878-4.967 13.925-9.474 21.25-13.75l2.891-1.707c10.13-5.952 10.13-5.952 13.859-7.543z" fill="#e5db5c"/><path d="M404 669c6.347-.54 10.378 1.189 16 4l3.172 1.461 3.266 1.539 3.059 1.438c2.649 1.653 3.463 2.67 4.504 5.563-5.184-1.244-8.55-2.97-13-6-3.225-1.243-3.225-1.243-6-2v-2l-2.125-.375c-3.052-.663-5.928-1.597-8.875-2.625v-1z" fill="#a92e2d"/><path d="M511 740l4 1v2l2.75.125c3.25.875 3.25.875 5.563 3.563 1.647 3.233 2.346 5.724 2.688 9.313-4.162-3.402-7.672-6.754-11-11l-2.25-1.687L511 742v-2z" fill="#b92020"/><path d="M1022.156 596.188c1.844.813 1.844.813 3.344 3.438l.5 2.375 3.375.438C1033 603 1033 603 1035 604v2l2 1c-3.265-.801-6.507-1.675-9.75-2.562l-2.984-.816L1022 603v-2h-5v-3h-3v-2c2.952-1.476 5.05-.623 8.156.188zM1024 604l3 1z" fill="#874d8f"/><path d="M907 681l2 1-3.809 4.395c-1.4 1.713-1.4 1.713-2.191 4.605h-2v3l-4 4c-2.079 3.133-3.748 6.243-4.937 9.813C891 710 891 710 888.375 711.313L886 712c3.017-5.756 6.373-11.085 10.16-16.363 2.606-3.734 4.98-7.603 7.359-11.484C905 682 905 682 907 681z" fill="#7a5b71"/><path d="M959 621c0 3 0 3-1.253 4.578l-1.739 1.672-1.887 1.844-1.996 1.906-3.867 3.75-1.746 1.672c-1.726 1.709-1.726 1.709-3.512 4.578h-2l-.258 1.766c-.953 2.87-2.334 4.027-4.617 5.984l-2.117 1.859C932 652 932 652 929 652l1.391-1.355c2.813-2.772 5.475-5.474 7.922-8.582L940 640h2l.783-1.771c1.314-2.407 2.742-3.983 4.694-5.901l2.031-2.012 2.117-2.066 2.141-2.113L959 621z" fill="#7b5d6b"/><path d="M916 528l7 2 1 2 6.063 3.125 3.348 1.633L936 538v2c-4.75 1.125-4.75 1.125-7 0v-2l-1.75-.312c-2.58-.788-4.105-2.078-6.25-3.687-2.147-.705-2.147-.705-4-1l-1-5z" fill="#245e8c"/><path d="M438 685c5.673-.293 8.991-.006 14 3v2h2v4c-4.236-.471-6.14-.911-9-4-2.286-1.432-4.632-2.704-7-4v-1z" fill="#c51215"/><path d="M431.375 590.813l2.898-.043c2.757.233 4.376.821 6.727 2.23v2l1.75.75c2.55 1.417 4.268 3.126 6.25 5.25h-6v-4l-2.375-.937L436 594c-5.154-.175-9.919.153-15 1 3.436-3.593 5.4-4.154 10.375-4.187z" fill="#aa2627"/><path d="M496 638c5.054 3.159 9.838 6.711 14 11v2l3 1v2c-2.564-1.099-4.033-2.037-5.937-4.125-1.94-2.143-1.94-2.143-4.812-2.125L500 648l-1-3c-2-1.209-2-1.209-4-2l2-1-1-4z" fill="#cb1314"/><path d="M767 830h1c.415 8.869-.25 17.397-1.375 26.188l-.382 3.078-.391 2.902-.349 2.602C765 867 765 867 763 870l.184-2.211 1.07-15.625.125-2.467.228-4.866c.283-5.721.283-5.721 1.393-6.831.231-1.347.412-2.704.563-4.062L767 830z" fill="#515b67"/><path d="M635 848h2c2.74 7.937 5.406 15.738 7 24l-3 2-.551-2.492c-1.407-6.249-2.924-12.389-4.898-18.484C635 851 635 851 635 848z" fill="#f5870f"/><path d="M467 618l6 3v3l2.313.375C478 625 478 625 481 627v2l4 2-3 3-5-5v-2h-4c-1.562-1.312-1.562-1.312-3-3l-1.687-1.5C467 621 467 621 467 618z" fill="#df0105"/><path d="M586 844c3 1 3 1 4.168 2.996l1.02 2.441 1.043 2.434C593 854 593 854 593 856h2c1.498 3.371 2 5.204 2 9h2l1 8c-2.648-1.324-2.683-2.372-3.687-5.125-2.06-5.391-4.46-10.576-6.938-15.784-1.269-2.677-2.436-5.277-3.374-8.091z" fill="#9e3e39"/><path d="M541 690c3.804 3.411 6.228 7.28 8.813 11.625l1.271 2.063c1.039 1.732 1.986 3.519 2.916 5.313l-1 2-3-2v-4l-6-1-3-14z" fill="#ba1d1e"/><path d="M846 553h1c.391 5.859.391 5.859 0 8l-4 4-3.25 6.25-1.578 3.266L837 577h-2l.938-2.75L838 567h2l.551-1.793c1.399-4.396 2.75-8.404 5.449-12.207z" fill="#4c5d6e"/><path d="M817 809l2 1c-2.146 8.549-4.949 16.741-8 25h-1l-.562-4.375-.316-2.461C809 826 809 826 810 824h3l.367-1.758c.97-4.522 2.067-8.88 3.633-13.242z" fill="#515b68"/><path d="M365 658c6.705-.198 12.652-.308 19 2v2l2.938.375L390 663l1 2c-8.72-1.819-17.375-3.773-26-6v-1z" fill="#a83331"/><path d="M812 635h1c.2 4.302-.317 7.074-2 11l-1 4a52.37 52.37 0 0 1-3 9h-2l-1 3c.602-6.182 2.447-11.618 4.563-17.437l.998-2.795L812 635z" fill="#45596f"/><path d="M474 604c4.967.677 8.414 1.414 12 5l2.438.938c2.567 1.065 3.893 1.865 5.563 4.063v3c-3.778-1.356-6.757-3.082-10-5.437-2.565-1.855-5.085-3.613-7.812-5.223L474 605v-1z" fill="#de8d2a"/><path d="M549 779c3.481 1.393 4.479 2.632 6 6l2 1-1 5c-3.188-.948-4.755-1.698-6.875-4.312-1.297-3.099-1.117-4.531-.125-7.687z" fill="#c90b0f"/><path d="M589 775c4.871 6.037 7.064 13.579 9 21h-3v-5h-2c-3.67-4.991-4.178-9.945-4-16z" fill="#b32223"/><path d="M428 677c4.084.743 8.019 1.829 12 3v2h3l1 4c-3.419-.423-6.721-.923-10-2-1.375-2.5-1.375-2.5-2-5-2.017-1.344-2.017-1.344-4-2z" fill="#cf070c"/><path d="M649 660l2 1c.527 2.074.527 2.074.938 4.688.574 3.253 1.071 5.327 2.688 8.25 2.066 4.602 1.614 9.093 1.375 14.063-2.294-4.308-3.399-8.736-4.625-13.437l-.695-2.564c-1.071-4.07-2.011-7.75-1.68-11.998z" fill="#e3d645"/><path d="M558 718c3 2.631 4.724 5.742 6.688 9.188l1.887 3.293L568 733c-2.862 1.431-4.934.6-8 0l.125-3.562c.015-4.162-.813-7.502-2.125-11.437z" fill="#c81114"/><path d="M342 650l3.762.84 4.926 1.098 2.475.553L365 655l-1 3c-7.494-.441-14.222-2.805-21-6l-1-2z" fill="#a63432"/><path d="M619 618c2.3 2.798 3.546 5.139 4.5 8.625l.738 2.625L625 632l1.688 5.625L628 642l-3-1v-2l-2-1-.437-2.687c-.386-3.358-.386-3.358-2.125-6.187-1.852-4.025-1.665-6.733-1.437-11.125z" fill="#d88e30"/><path d="M565 808c3.754 1.251 4.241 2.565 6 6v2h2l2 7h2l1 6-2-1v-2l-2-1-2.125-3.437-1.07-1.871C570 818 570 818 570 816l-2-1-1-4h-2v-3z" fill="#a63230"/><path d="M405 604v2l-5 3-3.5 2.563c-2.733 1.99-5.344 3.21-8.5 4.438l-1.562 1.688L385 619c-2.187-.312-2.187-.312-4-1l4.094-2.727 4.063-2.734C401.813 604 401.813 604 405 604z" fill="#a72e2d"/><path d="M586 482l1 3-3 3-3-1v2l-5 3c-1.968 1.968-1.662 5.348-2 8-1.562-1.25-1.562-1.25-3-3 .306-3.932 2.36-5.58 5.25-8.062l2.328-2.035c2.377-1.867 4.797-3.408 7.422-4.902z" fill="#e6da49"/><path d="M771 804h1l-.437 11.313-.119 3.248-.127 3.115-.111 2.872C771 827 771 827 770 830h-2c-.189-5.802.535-11.223 1.5-16.937l.434-2.65L771 804z" fill="#535e6b"/><path d="M598 796c2.596 3.161 4.176 6.358 5.75 10.125l1.359 3.195C606 812 606 812 605 814l-3-1v-5l-3-1c-.693-3.724-1.111-7.211-1-11z" fill="#b32525"/><path d="M854 727h2c-1.324 4.441-3.092 8.109-5.5 12.063-2.175 3.58-4.055 7.001-5.5 10.938h-1c.403-6.316 2.712-10.65 6-16h2l.438-2.375C853 729 853 729 854 727z" fill="#495767"/><path d="M546 704l4 1v4l2.313.688c3.261 1.592 4.215 3.04 5.688 6.313l-1 2-1-3-2.25-.125c-3.877-1.234-4.753-3.433-6.75-6.875l-2-3 1-1z" fill="#ce0f11"/><path d="M853 486l4.875 2.688 2.742 1.512c2.767 2.091 3.607 3.44 4.383 6.801-1.881 3.483-4.058 6.352-7 9 .569-3.982 1.89-6.606 4-10v-2l-6-3v-2l-3 1v-4z" fill="#618e4c"/><path d="M819 798h3c-.896 8.961-.896 8.961-3 12l-3 2c-1.289-2.579-.821-3.66-.187-6.437l.52-2.371C817 801 817 801 819 798z" fill="#365878"/><path d="M563 695c3.653 1.25 4.781 1.671 7 5v5l2 3c-.375 2.188-.375 2.188-1 4l-4-7.375-1.156-2.117C563 697.227 563 697.227 563 695z" fill="#e5861d"/><path d="M655 689h3v3h2v5h2v13c-2.062-3.093-2.67-5.227-3.5-8.812-.989-4.143-2.051-8.176-3.5-12.187z" fill="#e7db41"/><path d="M526 669c4.01 3.676 6.453 7.19 9 12-5.662-1.317-7.746-3.406-11-8v-2h2v-2z" fill="#bf1d1d"/><path d="M485 631c2.929.628 5.361 1.586 8 3v2l3 1-4 2-1-2-3 1-4-4 1-3z" fill="#c71416"/><path d="M867 816h2c-1.675 4.88-4.368 8.992-7.125 13.313l-1.418 2.244L857 837l-1-4h2v-3h2l.313-2.187c.755-3.09 1.843-5.23 3.688-7.812h2l1-4z" fill="#7a5d6f"/><path d="M513 654c5.301 4.008 9.07 8.663 13 14-3.147 0-4.315-.527-7-2l-2-1v-4l-3-1-1-6z" fill="#ba191b"/><path d="M774 795h1c.144 8.754-.37 17.383-2 26h-2l.375-9.062.094-2.568c.237-5.106.912-9.517 2.531-14.369z" fill="#27567f"/><path d="M585 733c3.771 1.257 4.052 2.347 5.813 5.813l1.395 2.645c.793 2.543.793 2.543-.07 4.867L591 748c-3.147-3.29-3.751-6.648-4.57-10.977-.353-2.08-.353-2.08-1.43-4.023z" fill="#ec8b1c"/><path d="M563 733c3.115.246 4.604.617 6.875 2.813C571 738 571 738 570.688 740.25L570 742c-3.773-1.02-4.802-1.659-6.812-5.125L562 734l1-1z" fill="#cd0d10"/><path d="M766 854l3 2h-2v13l2 1-1 2h-2v2h-3l3-20z" fill="#255883"/><path d="M770 827l2 1c-.744 7.268-1.933 13.971-4 21h-1l1-19h2v-3z" fill="#265781"/><path d="M880 683l1 2-1 3h-2l-.75 2.75c-1.306 3.396-2.551 4.888-5.25 7.25l-2 2-1-2 2-4h2l.688-3.25c1.443-4.122 2.732-5.394 6.313-7.75z" fill="#265881"/><path d="M1054 663c-3.682 2.455-7.41 3.723-11.562 5.188l-2.365.865c-2.003.71-4.037 1.336-6.072 1.947l-2-1c1-2 1-2 4.422-3.289l4.328-1.336 2.172-.695c3.795-1.172 7.059-1.98 11.078-1.68z" fill="#7a5d6f"/><path d="M661 435c-.997 2.493-1.651 3.775-3.937 5.25C655 441 655 441 652 441v2l-4.875 2.563-2.742 1.441L642 448l-2-1 9.375-6 2.695-1.734 2.578-1.641 2.38-1.523C659 435 659 435 661 435z" fill="#e3d64b"/><path d="M890 775h2c.931 2.606 1.149 3.642.063 6.25L891 783h-2v3c-2 1.688-2 1.688-4 3-.687-2.312-.687-2.312-1-5 1.313-1.812 1.313-1.812 3-3h2l1-6z" fill="#87518d"/><path d="M666 731l3 1 1 7.563.289 2.135A87.96 87.96 0 0 1 671 755h-1l-.621-3.359-.816-4.391-.408-2.211-1.701-8.032C666 735 666 735 666 731z" fill="#dfd353"/><path d="M552 715h4c2.892 3.893 5 8.12 5 13h-2l-2.93-5.273c-1.079-1.888-1.079-1.888-3.07-3.727l1-2h-2v-2z" fill="#de0206"/><path d="M454 689l2 1v2l6 2v2l4 2-1 2c-3.44-1.209-5.499-2.386-8-5l-3-1v-5z" fill="#dd0105"/><path d="M830 592l2 1c-.376 2.782-.673 4.588-2.437 6.813C828 601 828 601 826 601v2h-2c1.477-7.508 1.477-7.508 4.125-10l1.875-1z" fill="#355b7d"/><path d="M451 570l2 1-3 1-2 4-1.625 1.438c-1.647 1.554-1.647 1.554-1.562 4.25L445 584l-4-4c2.4-4.942 5.523-7.043 10-10z" fill="#d69135"/><path d="M730 407c3.112 1.498 6.053 3.199 9 5l-3 1-5-3-1 13h-1l-.062-7.437-.025-2.143c-.009-1.807.036-3.614.088-5.42l1-1z" fill="#70874e"/><path d="M580 726c2.375.563 2.375.563 5 2 1.607 4.057 2.264 7.649 2 12-2.773-1.387-3.26-3.12-4.625-5.875l-1.352-2.68C580 729 580 729 580 726z" fill="#db8a2a"/><path d="M830 598l2 1-.875 1.688L828 608l-1 2-3-1v-6h2v-2l4-3z" fill="#225c8c"/><path d="M559 790c1.727 3.453 2.22 6.158 2 10-3.698-1.233-3.935-2.201-5.687-5.562l-1.324-2.504L553 790c3.75-1.125 3.75-1.125 6 0z" fill="#bc191b"/><path d="M867 705l2 2-3.812 6.813-1.08 1.947c-1.754 3.106-3.367 5.915-6.107 8.24v-4h2v-3h2l.25-2.625c.856-3.852 2.424-6.223 4.75-9.375z" fill="#505765"/><path d="M551 678l4 1v2h2l1.313 2.688c1.592 3.27 1.592 3.27 3.438 6L563 692l-1 3c-2.912-3.288-4.497-5.599-5-10h-2l-4-7z" fill="#ce8d3a"/><path d="M489 714.875c3.223 1.813 3.781 4.772 5 8.125l-2 1c-2.625-1.312-2.625-1.312-5-3v-2l-3-1c2.368-2.961 2.368-2.961 5-3.125z" fill="#bd2422"/><path d="M353 637l2 1c-2 3-2 3-5 4-1.552 1.601-1.552 1.601-3 3.5-2.081 2.645-2.699 3.4-6 4.5 1.378-4.523 3.389-6.487 7.125-9.312l2.758-2.113L353 637z" fill="#a7312f"/><path d="M510 733c2.414.384 3.679.645 5.344 2.488l1.156 1.824c1.926 2.897 3.934 5.312 6.5 7.688l-8-2-1-4-4-4v-2z" fill="#e10205"/><path d="M643 638c2.82 2.82 3.265 6.113 4.188 9.875l.576 2.184c.925 3.709 1.363 6.295.236 9.941l-3.062-9.312-.893-2.67-.83-2.568-.778-2.365C642 641 642 641 643 638z" fill="#ddd157"/><path d="M603 544l3 1 .375 2.938L607 551l2 1 2.625 5.063 1.352 2.785L614 562l-2 2-3.937-7.75-1.131-2.211-1.084-2.148-1-1.968c-.862-1.956-1.392-3.838-1.848-5.923z" fill="#e0d45c"/><path d="M826 467c4.47 2.503 8.769 5.111 13 8-2.606.931-3.642 1.149-6.25.063L831 474l-1 2-2-3 1-1-3-2v-3z" fill="#5c8e48"/><path d="M468 705c6.747 1.506 12.089 4.133 16 10l-1 2-5.812-4.312-1.658-1.225c-2.691-2.006-5.25-3.992-7.529-6.463z" fill="#ad2627"/><path d="M538 657c2.494.998 3.787 1.686 5.313 3.938C544 663 544 663 543 666h2v2l2 1h-3c-3-3.333-3-3.333-3-6h-2l-1-6z" fill="#de8c2a"/><path d="M499 539l2 1-4.375 3-2.461 1.688C492 546 492 546 490 546l-1 3c-1.848.73-1.848.73-4.062 1.188l-2.223.48L481 551c3.128-3.312 6.68-5.421 10.563-7.75l2.076-1.285c1.749-1.054 3.552-2.017 5.361-2.965z" fill="#d5973b"/><path d="M1068 626l15 10-1 2-6-3v-2l-2.875-.312C1070 632 1070 632 1068 629v-3z" fill="#71576f"/><path d="M871 514c1.162 3.485.877 3.972-.687 7.125l-1.012 2.133C868 525 868 525 865.855 525.742L864 526c1.557-4.671 4.084-8.087 7-12z" fill="#455b6f"/><path d="M540 514l1 3-4.312 3-2.426 1.688C532 523 532 523 529 523v-2l5.5-3.625 3.094-1.914L540 514z" fill="#ce8232"/><path d="M636 619h2c1.354 2.709 1.065 5.009 1 8h2l1 11c-1.998-2.997-2.99-5.537-4.125-8.937l-1.07-3.152C636 623 636 623 636 619z" fill="#e1d64f"/><path d="M950 716h3v2l-5.375 4.563-3.023 2.441C942 727 942 727 940 728v-3h2l2-4h3v-2h2l1-3z" fill="#7a5e70"/><path d="M574 500c2.438.813 2.438.813 5 2l1 3 2.063 2c1.938 2 1.938 2 1.938 5h-2l-4.125-5.437-2.195-3.059C574 501 574 501 574 500z" fill="#e4da4a"/><path d="M797 861h3l-.312 5.375-.176 3.023L799 872l-3 2-.062-4.25-.035-2.391c.094-2.266.465-4.188 1.098-6.359z" fill="#395874"/><path d="M894 774h3c-.612 3.44-1.921 5.516-4.062 8.25l-1.66 2.141L890 786l-1-3h2l.375-3.375C892 776 892 776 894 774z" fill="#7c5a75"/><path d="M781 749h1c-.366 7.455-1.209 14.049-4 21-1.274-3.822-.454-6.683.375-10.5l.422-2.051c.603-2.882 1.271-5.653 2.203-8.449z" fill="#535763"/><path d="M479 707l1.813 1.938c2.096 2.266 2.096 2.266 5.188 3.063v2h3l-1 3c-4 0-4 0-5.484-1.426l-1.266-1.887-1.297-1.863C479 710 479 710 479 707z" fill="#db0206"/><path d="M527 648c3.313.563 3.313.563 7 2 1.537 2.295 2.158 4.327 3 7-2.726-.373-3.808-.792-5.703-2.848l-1.547-2.215-1.578-2.223L527 648z" fill="#dc8c2c"/><path d="M501 642l3.938 2.813 2.215 1.582C509 648 509 648 510 651l3 1v2c-3.391-1.453-5.413-3.413-8-6l-3-1-1-5z" fill="#a93532"/><path d="M455 608c7.571 2.857 7.571 2.857 10 7l-1 2-5-2v-3h-3l-1-4z" fill="#de0206"/><path d="M923 530c3.699 1.373 6.951 3.064 10.313 5.125l2.676 1.633L938 538l-2 2v-2l-2-.187c-4.122-1.116-7.658-3.15-11-5.812v-2z" fill="#495566"/><path d="M574 711c1.461 2.647 2 3.894 2 7h2l.375 2.938L579 724l2 1h-3l-3-5.375-1.687-3.023C572 714 572 714 572 712l2-1z" fill="#cd8635"/><path d="M507 650c5.785 3.323 5.785 3.323 6.875 6.75L514 659l-6-3v-2h-2l1-4z" fill="#df0205"/><path d="M591 748h2l1 5h2l4 10-2 1v-2l-2-1-2-5-1.625-4.312L591 748z" fill="#d28a33"/><path d="M893 664h2c0 4 0 4-2.25 6.5L890 673l-2.312 2.313L886 677c.526-3.788 1.381-6.172 4-9h2l1-4z" fill="#265882"/><path d="M815 638c1 3 1 3 .25 5.5-1.185 2.37-2.263 3.784-4.25 5.5-1-3-1-3 .313-6.062C813 640 813 640 815 638z" fill="#215d8e"/><path d="M366 628l2 1c-2.798 4.27-5.835 6.471-10.812 7.688L355 637c2.157-3.235 3.689-4.108 7-6l4-3z" fill="#ae2c2a"/><path d="M435 591v2l-4.75 1.063-2.672.598c-2.565.338-4.149.151-6.578-.66 4.563-3.533 8.496-3.324 14-3z" fill="#b01a1f"/><path d="M842 527l1 2-3.375 5.625-1.961 3.039L836 540h-1v-5h2l1-4h2v-3l2-1z" fill="#61884d"/><path d="M754 824h2l1 8-2 2-2-1v-8l1-1z" fill="#51a040"/><path d="M491 716l4 2-1 1 2.438 1.313C499 722 499 722 500 725l-2 1v-3l-5 1-2-8z" fill="#de0206"/><path d="M857 535c1 3 1 3 .375 5.5-1.66 3.019-3.334 3.979-6.375 5.5 1.258-4.508 2.904-7.491 6-11z" fill="#42576b"/><path d="M578 531c4.122 3.768 7.631 7.889 10 13l-1 2c-3.254-2.834-4.521-4.686-5-9h-2l-2-6z" fill="#ca8e3e"/><path d="M874 694h2c-1.566 4.308-3.683 8.062-6 12h-1c-.812-2.687-.812-2.687-1-6 2.375-2.812 2.375-2.812 5-5l1-1z" fill="#45596b"/><path d="M495 723h3c1.75 2.313 1.75 2.313 3 5l-1 3-7-6 2-2z" fill="#b52223"/><path d="M561 506l1 3h2l-1 2-2-1v-2c-4.219-.196-7.17.198-11 2v-2c4.103-2.386 6.386-3.493 11-2z" fill="#d39a40"/><path d="M841 799c1 2 1 2 .004 5.039l-1.441 3.586-1.434 3.602L837 814h-1c-.671-6.44 1.246-9.838 5-15z" fill="#7a537b"/><path d="M606 777c3 1 3 1 4.688 4.375C612 785 612 785 612 788h-2l-2-3.812-1.125-2.145C606 780 606 780 606 777z" fill="#d28730"/><path d="M893 668l2 1-8 11-1-3c1.434-2.262 1.434-2.262 3.438-4.687l1.996-2.449L893 668z" fill="#515c68"/><path d="M1007 592c6.195.416 11.267 1.603 17 4-3.652 1.072-6.264.764-10 0v-2l-7-1v-1z" fill="#79626d"/><path d="M888 509c4.308 1.566 8.062 3.683 12 6-1.562.75-1.562.75-4 1-2.547-1.023-4.863-2.273-7-4l-1-3z" fill="#525d66"/><path d="M615 837c2.01 3.015 2.726 5.215 3.625 8.688l.789 3.012L620 851c-3.428-2.285-3.884-3.138-5-7v-7z" fill="#a03835"/><path d="M603 768c3 1 3 1 4.168 2.848l1.02 2.215 1.043 2.223L610 777l-2 1c-3.442-2.66-3.995-5.903-5-10z" fill="#f6860e"/><path d="M823 604h1l-.375 4.813-.211 2.707C823 614 823 614 821 617h-2l1.438-5.375.809-3.023C822 606 822 606 823 604z" fill="#4b596a"/><path d="M631 605h2v5h2l1 9c-1.623-2.434-2.617-4.313-3.625-7l-.789-2.062C631 608 631 608 631 605z" fill="#e9de43"/><path d="M584 512h3l.813 2.938L589 518l3 1-1 4c-2.765-3.457-4.849-7.143-7-11z" fill="#e7dd3e"/><path d="M842 749l2 1c-1.311 4.234-2.944 8.074-5 12-.93-2.551-1.086-3.74-.223-6.359l1.16-2.391 1.152-2.422L842 749z" fill="#485566"/><path d="M415 597l2 1-8 6c-2.187-.375-2.187-.375-4-1l4.875-3.062 2.742-1.723L415 597z" fill="#a23936"/><path d="M637 449l2 1-2 3h-3l-1 3h-5c2.963-2.387 5.943-4.735 9-7z" fill="#e7dc43"/><path d="M599 765c4.714 2.357 4.714 2.357 6 6v4l2 1h-3l-5-11z" fill="#cd8431"/><path d="M875 729l3 1c-.187 1.875-.187 1.875-1 4-2.562 1.25-2.562 1.25-5 2 .75-4.75.75-4.75 3-7z" fill="#7c4c7f"/><path d="M949 715l2 1-2 3h-2v2h-5l1-2h2v-2c1.875-1.062 1.875-1.062 4-2z" fill="#87518b"/><path d="M472 702c4.875 4.75 4.875 4.75 6 7-4.75-.75-4.75-.75-7-3 .375-2.125.375-2.125 1-4z" fill="#d90106"/><path d="M471 556c0 3 0 3-1.625 5.125-2.817 2.224-4.844 2.554-8.375 2.875 3.023-3.255 6.257-5.618 10-8z" fill="#cd8c38"/><path d="M847 517h3c-1.652 3.579-3.783 6.748-6 10l-1-4h2l2-6z" fill="#61894b"/><path d="M853 486l4.938 2.875 2.777 1.617C863 492 863 492 864 494l-8-3v-2l-3 1v-4z" fill="#5e7d4f"/><path d="M761 427c4.308 1.566 8.062 3.683 12 6l-2 1c-2.383-.996-2.383-.996-5.125-2.437l-2.758-1.434L761 429v-2z" fill="#658e50"/><path d="M820 852c1.124 3.304.896 5.051-.437 8.25l-.871 2.141L818 864c-2-3-2-3-1.75-5.625L817 856l2-1 1-3z" fill="#7a5278"/><path d="M438 685h8v5c-3.375-1.186-5.647-2.276-8-5z" fill="#ae2325"/><path d="M392 665l3.813-.062 2.145-.035C400 665 400 665 403 666l1 3-12-3v-1z" fill="#a43331"/><path d="M453 604l3.375 1.813 1.898 1.02C460 608 460 608 462 611l-8-2-1-5z" fill="#a82f2d"/><path d="M620 851c1.903 2.855 2.462 4.419 3.125 7.688l.508 2.449L624 863c-2.562-2.062-2.562-2.062-5-5 .188-3.812.188-3.812 1-7z" fill="#a33835"/><path d="M810 824h2l.125 4.375.07 2.461C812 833 812 833 810 835l-.562-4.375-.316-2.461C809 826 809 826 810 824z" fill="#405e75"/><path d="M606 814c2.19 3.285 2.998 6.207 4 10l-5-3 1-7z" fill="#ad2424"/><path d="M513 654c5.875 4.625 5.875 4.625 7 8l-6-2-1-6z" fill="#aa2b2a"/><path d="M935 648l3 1-5 5h-3v3l-2-1c1.355-4.066 3.57-5.53 7-8z" fill="#804a88"/><path d="M972 595h5c-1.285 2.57-2.499 2.904-5.062 4.125l-2.223 1.07L968 601l-1-2 5-2v-2z" fill="#4f5b6a"/><path d="M597 532h2l.875 2.375c.974 2.722.974 2.722 3.125 4.625v5l-4.625-7.187-1.352-2.168L596 533l1-1z" fill="#ddd150"/><path d="M752 855c1.033 2.788 1.045 3.868.063 6.75L751 864l-3-1 1-2h2l-.062-2.437C751 856 751 856 752 855zm-5 9l2 1z" fill="#569444"/><path d="M800 850l2 1-2 10-2-2c.242-2.164.242-2.164.875-4.625l.617-2.477L800 850z" fill="#255985"/><path d="M767 830h1v14c-2-1-2-1-2.687-3l-.312-2 1-1 .563-4.062L767 830z" fill="#636767"/><path d="M565 808c3.754 1.251 4.241 2.565 6 6v2l-3-1c-.687-2.062-.687-2.062-1-4h-2v-3z" fill="#a3403a"/><path d="M909 756h2c-1.242 3.439-2.557 6.252-5 9h-2l1-4h2l2-5z" fill="#7d5f72"/><path d="M571 740c2.743 3.2 4.63 6.005 6 10-2.451-.98-3.768-1.651-5.25-3.875C571 744 571 744 571 740z" fill="#a63532"/><path d="M644 706h1c2.296 9.41 2.296 9.41 2 14l-2-4-1.187-1.875c-1.127-2.946-.499-5.104.188-8.125z" fill="#f08a17"/><path d="M812 635h1c.196 4.219-.198 7.17-2 11h-2l.938-4.375.527-2.461C811 637 811 637 812 635z" fill="#596066"/><path d="M968 559c3.914 1.269 5.791 2.512 8 6-3.615 0-5.112-.892-8-3v-3z" fill="#4c5966"/><path d="M960 553c3.366 1.443 5.51 3.333 8 6-3.999 0-5.802-1.726-9-4l1-2z" fill="#4d5966"/><path d="M840 865c1.188 1.688 1.188 1.688 2 4-1.312 2.75-1.312 2.75-3 5h-1c.875-6.75.875-6.75 2-9z" fill="#7a5c73"/><path d="M867 811l2 1v4l-2 1-1 3h-2c0-4 0-4 2-6l1-3z" fill="#865189"/><path d="M836 762l2 1-1 4h-3l-1 2c-.187-2.375-.187-2.375 0-5l3-2z" fill="#385875"/><path d="M567 702h2c3.077 5.415 3.077 5.415 2.688 8.375L571 712c-4-6.625-4-6.625-4-10z" fill="#c9893b"/><path d="M500 622c5.75 1.75 5.75 1.75 8 4l-1 3-2-1v-2l-1.937-.875C501 624 501 624 500 622z" fill="#d29a42"/><path d="M834 578c.688 1.625.688 1.625 1 4l-3 6h-2c1.109-3.487 2.263-6.775 4-10z" fill="#4c5567"/><path d="M959 555c5.75 1.75 5.75 1.75 8 4l1 2c-3.483-.645-6.094-1.982-9-4v-2z" fill="#265780"/><path d="M950 547c3.995 1.37 6.8 3.257 10 6-3.941-.563-6.751-1.679-10-4v-2z" fill="#4e5a68"/><path d="M562 725c3.081 2.773 4.688 5.063 6 9-1.875-.562-1.875-.562-4-2-1.25-3.625-1.25-3.625-2-7z" fill="#a63330"/><path d="M1028 670l4 1c-2.986 1.991-5.597 2.941-9 4l1-3h4v-2z" fill="#7d6070"/><path d="M904 651l5 2-5 5v-7z" fill="#465e73"/><path d="M593 856h2l2 7-4-2v-5z" fill="#b22526"/><path d="M858 717c1.312 3.937.243 6.125-1 10-1.065-3.196-1.074-5.657-1-9l2-1z" fill="#335979"/><path d="M774 706l3 1 1 3h-2v2l-3-1 1-5z" fill="#4ea63d"/><path d="M541 693c1.563 1.75 1.563 1.75 3 4-.312 2.25-.312 2.25-1 4-2.147-2.147-2.543-3.078-3-6l1-2z" fill="#e00105"/><path d="M541 690c2.799 2.528 4.458 4.204 5 8-3-1-3-1-4.187-2.875C541 693 541 693 541 690z" fill="#a8312f"/><path d="M490 546l-1 3c-1.848.73-1.848.73-4.062 1.188l-2.223.48L481 551c4.773-5 4.773-5 9-5z" fill="#d48d33"/><path d="M842 478c3.534 1.963 6.245 4.041 9 7-2.937-.812-2.937-.812-6-2l-1-3h-2v-2z" fill="#64884d"/><defs ><path id="B" d="M730.438 1033.625c3.79 2.242 6.135 4.698 8.563 8.375.813 3.375.813 3.375 1 6-3.382.295-6.627.437-10 0-2.687-2.437-2.687-2.437-5-5-4.989-1.361-8.252-.969-13 1-2.049 7-2.049 7-.875 14 2.188 3.574 2.188 3.574 5.875 5 4.047.528 5.715.161 9.313-1.875 2.724-1.845 2.724-1.845 3.688-4.125h11c-1.904 6.497-4.239 10.308-10 14-6.017 2.904-13.078 3.268-19.453 1.207-3.365-1.626-6.085-3.356-8.547-6.207v-2l-2-1c-2.254-7.828-2.788-14.547.973-21.902 6.069-9.73 18.167-12.106 28.465-7.473z"/></defs></svg>